<svg xmlns="http://www.w3.org/2000/svg" viewBox="0 0 175.28 52.56"><defs><style>.cls-1{fill:#919191;}.cls-2{fill:#e0620b;}</style></defs><title>Asset 1</title><g id="Layer_2" data-name="Layer 2"><g id="Layer_1-2" data-name="Layer 1"><path d="M53.4,12.34h-.34s0,0,0,0l0,0h.34s0,0,0,0S53.42,12.34,53.4,12.34Zm.07,12.41h-.35s0,0,0,0l0,0h.35a0,0,0,0,1,0,0S53.48,24.75,53.47,24.75Zm.81-12.41H54a0,0,0,0,1,0,0,0,0,0,0,1,0,0h.33l0,0Zm0,12.41H54s0,0,0,0a0,0,0,0,1,0,0h.33a0,0,0,0,1,0,0S54.29,24.75,54.28,24.75Zm2.2.06h-2.2c-.06,0-.08,0-.08-.08V12.32c0-.05,0-.08.08-.08h2.2a.07.07,0,0,1,.08.08V17a.07.07,0,0,1-.08.08c-.06,0-.08,0-.08-.08V12.4h-2V24.65h2V20.07c0-.05,0-.08.08-.08a.07.07,0,0,1,.08.08v4.66C56.56,24.79,56.53,24.81,56.48,24.81Zm-2.2-14,0,0v-.28l0,0,0,0v.28S54.29,10.83,54.28,10.83Zm0,.76,0,0v-.29l0,0,0,0v.29Zm0,.75,0,0V12l0,0,0,0v.35Zm0,12.76,0,0v-.35l0,0a0,0,0,0,1,0,0v.35A0,0,0,0,1,54.28,25.1Zm0,.75,0,0v-.34l0,0s0,0,0,0v.34S54.29,25.85,54.28,25.85Zm0,0,0,0v-.34l0,0s0,0,0,0v.34S54.29,25.85,54.28,25.85Zm0,.76a0,0,0,0,1,0,0v-.35l0,0,0,0v.35A0,0,0,0,1,54.28,26.61Zm0-.07,0,0v-.28l0,0,0,0v.28S54.29,26.54,54.28,26.54Zm.55-8.09-.35-.35a0,0,0,0,1,0,0h0l.35.34v.05ZM54.5,19h0s0,0,0,0l.35-.34h0v0Zm.67-.69h0v0l.21-.2h0v0l-.2.2Zm.21.69h0l-.21-.22v0h.05l.2.2v0Zm.41-2.68L55.44,16s0,0,0,0h0s0,0,0,0,0,0,0,0l.35.35v0Zm-.33,4.8h0s0,0,0,0l.35-.35s0,0,0,0v.05Zm0-2v0l6.7-6.8h0v0l-6.7,6.78,0,0Zm.16-1.29,0,0v0l.21-.2s0,0,0,0a0,0,0,0,1,0,0s0,0,0,0h0l-.21.2Zm.21,1.63h0l-.21-.2v0s0,0,0,0l.21.2h0S55.88,19.46,55.87,19.46Zm.2.15h0v-.05l7.24-7.26h.05v0Zm.26-2.75h0l-.2-.21v0h0l.2.21v0Zm-.22,3.56v0l.2-.2s0,0,0,0v0l-.2.2,0,0Zm.1-3.13,0,0s0,0,0,0h0l.35-.34h0v0l-.35.34Zm.33,2.86-.35-.34h0s0,0,0,0,0,0,0,0,0,0,0,0l.35.32v0Zm0-3.15s0,0,0,0h0q0-.07,0-.12l4.66-4.6h.12a.24.24,0,0,1,0,.12L56.6,17h-.06Zm4.66,7.81s-.05,0-.06,0L56.48,20.2a.1.1,0,0,1,0-.13.13.13,0,0,1,.12,0l4.66,4.6a.24.24,0,0,1,0,.12S61.23,24.81,61.2,24.81Zm-4.72-14,0,0v-.28s0,0,0,0l0,0v.28Zm0,.76,0,0v-.29s0,0,0,0l0,0v.29Zm0,.73V12s0,0,0,0l0,0v.35l0,0S56.46,12.33,56.46,12.32Zm.42,0h-.4s0,0,0,0,0,0,0,0h.4s0,0,0,0S56.9,12.34,56.88,12.34Zm0,12.41h-.4s0,0,0,0,0,0,0,0h.4s0,0,0,0S56.9,24.75,56.88,24.75Zm-.4.35,0,0v-.35s0,0,0,0a0,0,0,0,1,0,0v.35Zm0,.75,0,0v-.34s0,0,0,0,0,0,0,0v.34Zm0,0,0,0v-.34s0,0,0,0,0,0,0,0v.34Zm0,.74v-.35s0,0,0,0l0,0v.35l0,0S56.46,26.6,56.46,26.59Zm0-.05,0,0v-.28s0,0,0,0l0,0v.28Zm.06-6.39s0,0,0,0l1.57-1.5h0a0,0,0,0,1,0,0l-1.57,1.5Zm.28-2.8h0l-.2-.21v0h0l.2.21S56.84,17.33,56.82,17.35Zm-.2,2.6h0v0l.2-.2h0s0,0,0,0Zm.47.75h0v0l1.58-1.5h0s0,0,0,0l-1.56,1.5Zm.4-2.66v0l-.34-.33s0,0,0,0h0l.34.35v0S57.51,18,57.49,18Zm-.32,1.36h0a0,0,0,0,1,0,0l.34-.32a0,0,0,0,1,0,0s0,0,0,0v0Zm.53-7.06h-.41l0,0,0,0h.41l0,0Zm0,12.41h-.41s0,0,0,0l0,0h.41a0,0,0,0,1,0,0S57.71,24.75,57.7,24.75Zm-.06-3.5h0v0l1.58-1.5h0v0l-1.56,1.5Zm.4-2.6s0,0-.06,0,0-.06,0-.1l6.23-6.25h.12a.13.13,0,0,1,0,.12l-6.22,6.23S58.06,18.65,58,18.65Zm6.23,6.16H61.2c-.06,0-.08,0-.08-.08s0-.08.08-.08h2.87l-6.09-6s0-.06,0-.1a.09.09,0,0,1,.13,0l6.22,6.16s0,0,0,.08A.09.09,0,0,1,64.27,24.81Zm-6.08-3h0v0l1.56-1.5h0v0l-1.56,1.5Zm.55.55h0v0l1.56-1.5h0v0Zm.55.55h0v0l1.56-1.5h0v0Zm.55.55h0a0,0,0,0,1,0,0l1.57-1.57s0,0,0,0v0Zm.52-11.11H60s0,0,0,0l0,0h.4s0,0,0,0S60.38,12.34,60.36,12.34Zm0,12.41H60s0,0,0,0l0,0h.4s0,0,0,0S60.38,24.75,60.36,24.75Zm0-.75a0,0,0,0,1,0,0l1.57-1.57s0,0,0,0,0,0,0,0h0s0,0,0,0L60.38,24Zm.43-11.66,0,0,0,0h.41l0,0,0,0Zm0,12.41s0,0,0,0a0,0,0,0,1,0,0h.41a0,0,0,0,1,0,0l0,0Zm.12-.2a0,0,0,0,1,0,0l1.51-1.57s0,0,0,0,0,0,0,0v0l-1.51,1.59ZM64.27,12.4H61.2c-.06,0-.08,0-.08-.08s0-.08.08-.08h3.07c.06,0,.08,0,.08.08S64.33,12.4,64.27,12.4Zm-3.07-.06h0v0l.2-.2h0v0ZM61.4,25h0l-.2-.27v0h0l.2.29S61.42,25,61.4,25Zm.27-13.23a0,0,0,0,1,0,0l.2-.2h0v0l-.2.2Zm.2,13.72-.2-.21s0,0,0,0h0l.2.21v0Zm-.12-.76h0v0L63,23.49h0v0Zm.47-13.45h0v0l.22-.2s0,0,0,0,0,0,0,0v0l-.2.2Zm.2,14.76-.22-.21v0h0l.2.21v0Zm.28-15.31h0v0l.27-.2s0,0,0,0v0ZM63,26.61h0l-.27-.29v0a0,0,0,0,1,0,0s0,0,0,0l.29.27v0Zm-.14-1.86s0,0,0,0L63.5,24h0v0l-.69.69Zm1.44-12.41h0v0l.2-.2h0v0l-.21.2Zm0,0,0,0,0,0h.35l0,0,0,0ZM64.47,25h0l-.2-.27v0h0l.21.29v0Zm-.2-.27s0,0,0,0a0,0,0,0,1,0,0h.35a0,0,0,0,1,0,0l0,0Zm.47-13a0,0,0,0,1,0,0l.2-.2h0s0,0,0,0l-.2.2ZM65,25.51h0l-.2-.21s0,0,0,0h0l.2.21S65,25.49,65,25.51Zm.47-13.17h-.34s0,0,0,0l0,0h.34l0,0Zm0,12.41h-.34s0,0,0,0l0,0h.34a0,0,0,0,1,0,0S65.44,24.75,65.43,24.75ZM65.29,11.3s0,0,0,0h0l.2-.2s0,0,0,0,0,0,0,0v0l-.2.2Zm.2,14.76-.2-.21s0,0,0,0h0l.2.21v0Zm.29-15.31h0v0l.28-.2v0s0,0,0,0v0ZM66,26.61l-.28-.29v0s0,0,0,0l.26.27v0Z"/><path d="M65.15,12.34H64.8l0,0,0,0h.35l0,0Zm0,12.41H64.8l0,0a0,0,0,0,1,0,0h.35a0,0,0,0,1,0,0Zm0,0H64.8l0,0a0,0,0,0,1,0,0h.35a0,0,0,0,1,0,0Zm.75-12.41h-.29l0,0,0,0h.29l0,0ZM66,24.75h-.35l0,0,0,0H66a0,0,0,0,1,0,0Zm0,0h-.35l0,0,0,0H66a0,0,0,0,1,0,0Zm2.2.06H66s-.08,0-.08-.08V12.32a.07.07,0,0,1,.08-.08h2.2a.07.07,0,0,1,.08.08V24.73C68.24,24.79,68.21,24.81,68.16,24.81Zm-2.2-14,0,0v-.28l0,0,0,0v.28Zm0,.76,0,0v-.29l0,0,0,0v.29Zm0,.75,0,0V12l0,0a0,0,0,0,1,0,0v.35ZM66,25.1l0,0v-.35a0,0,0,0,1,0,0,0,0,0,0,1,0,0v.35Zm0,.75,0,0v-.34s0,0,0,0,0,0,0,0v.34Zm0,0,0,0v-.34s0,0,0,0,0,0,0,0v.34Zm0,.76,0,0v-.35l0,0,0,0v.35Zm0-.07,0,0v-.28l0,0,0,0v.28ZM66,24.65h2V12.4H66Zm.6-12.31h-.33l0,0a0,0,0,0,1,0,0h.33a0,0,0,0,1,0,0A0,0,0,0,1,66.64,12.3Zm.69,2.2H67l0,0,0,0h.34s0,0,0,0S67.35,14.54,67.33,14.54Zm0,4.05H67l0,0,0,0h.34s0,0,0,0S67.35,18.59,67.33,18.59Zm0,2.11H67s0,0,0,0l0,0h.34s0,0,0,0S67.35,20.7,67.33,20.7Zm0,1.92H67s0,0,0,0l0,0h.34l0,0S67.35,22.62,67.33,22.62Zm0-10.28h-.26l0,0,0,0h.26s0,0,0,0S67.35,12.34,67.33,12.34Zm.82,0h-.32l0,0a0,0,0,0,1,0,0h.32s0,0,0,0S68.17,12.34,68.15,12.34Zm0,2.2h-.32l0,0s0,0,0,0h.32s0,0,0,0S68.17,14.54,68.15,14.54Zm0,4.05h-.32l0,0s0,0,0,0h.32s0,0,0,0S68.17,18.59,68.15,18.59Zm0,2.11h-.32s0,0,0,0a0,0,0,0,1,0,0h.32s0,0,0,0S68.17,20.7,68.15,20.7Zm0,1.92h-.32a0,0,0,0,1,0,0s0,0,0,0h.32l0,0S68.17,22.62,68.15,22.62Zm6.58-8H68.16c-.06,0-.08,0-.08-.08s0-.08.08-.08h6.49V12.32a.07.07,0,0,1,.08-.08c.06,0,.08,0,.08.08v2.2C74.81,14.57,74.79,14.6,74.73,14.6Zm0-2.2H68.16c-.06,0-.08,0-.08-.08s0-.08.08-.08h6.57c.06,0,.08,0,.08.08S74.79,12.4,74.73,12.4Zm0,6.25H68.16c-.06,0-.08,0-.08-.08s0-.08.08-.08h6.57c.06,0,.08,0,.08.08S74.79,18.65,74.73,18.65Zm0,2.12H68.16c-.06,0-.08,0-.08-.09s0-.08.08-.08h6.57c.06,0,.08,0,.08.08S74.79,20.77,74.73,20.77Zm0,1.91H68.16c-.06,0-.08,0-.08-.08s0-.08.08-.08h6.57c.06,0,.08,0,.08.08S74.79,22.68,74.73,22.68Zm0,2.13H68.16c-.06,0-.08,0-.08-.08s0-.08.08-.08h6.57c.06,0,.08,0,.08.08S74.79,24.81,74.73,24.81Zm-6.59-1.3s0,0,0,0l1-.87s0,0,0,0,0,0,0,0h0l-1,.89Zm0-9.81h0l1.42-1.38h0v0L68.16,13.7Zm0-1.1h0l.34-.28h0v0l-.34.26Zm0,7.62h0s0,0,0,0l1.71-1.65s0,0,0,0,0,0,0,0h0l-1.71,1.65Zm0-1.08v0s0,0,0,0h0l.61-.55h0l-.61.55A0,0,0,0,1,68.14,19.14Zm0,5.61,0,0,0,0h0v0Zm0-.14a0,0,0,0,1,0,0l2-2s0,0,0,0v0l-2,2Zm0-13.78,0,0v-.28l0,0,0,0v.28S68.17,10.83,68.16,10.83Zm0,.76,0,0v-.29l0,0,0,0v.29Zm0,.75,0,0V12l0,0a0,0,0,0,1,0,0v.35Zm0,12.76,0,0v-.35l0,0a0,0,0,0,1,0,0v.35A0,0,0,0,1,68.16,25.1Zm0,.75,0,0v-.34l0,0s0,0,0,0v.34S68.17,25.85,68.16,25.85Zm0,0,0,0v-.34l0,0s0,0,0,0v.34S68.17,25.85,68.16,25.85Zm0,.76,0,0v-.35l0,0,0,0v.35A0,0,0,0,1,68.16,26.61Zm0-.07,0,0v-.28l0,0,0,0v.28S68.17,26.54,68.16,26.54Zm.32-12h0l2.18-2.2h0a0,0,0,0,1,0,0L68.5,14.52l0,0Zm.29,6.18h0v0l2.18-2.11s0,0,0,0v0Zm.32,4.05s0,0,0,0l2.12-2.11s0,0,0,0,0,0,0,0h0l-2.12,2.13Zm.49-10.21a0,0,0,0,1,0,0v0l2.12-2.2h0v0L69.6,14.52Zm.27,6.16s0,0,0,0L72,18.55s0,0,0,0v0l-2.2,2.13Zm.28,4.05h0v0l2.2-2.11s0,0,0,0,0,0,0,0v0l-2.18,2.13Zm.55-10.21,0,0v0l2.12-2.2h0v0l-2.14,2.18ZM71,20.7h0v0l2.19-2.11s0,0,0,0,0,0,0,0h0s0,0,0,0L71,20.7Zm.28,4.05h0s0,0,0,0l2.18-2.11a0,0,0,0,1,0,0v0Zm.45-10.23v0l2.2-2.2h0a0,0,0,0,1,0,0l-2.18,2.18,0,0Zm.37,6.18h0v0l2.19-2.11s0,0,0,0,0,0,0,0h0s0,0,0,0L72.07,20.7Zm.26,4.05s0,0,0,0l2.18-2.11s0,0,0,0v0l-2.2,2.13Zm.49-10.21s0,0,0,0v0l1.91-1.92h0v0l-1.91,1.92Zm.34,6.16h0v0l1.57-1.56a0,0,0,0,1,0,0v0Zm.27,4.05h0v0l1.3-1.24,0,0v0l-1.3,1.24Zm.49-10.21s0,0,0,0v0l.81-.82h0v0l-.83.82Zm.26,6.16h0v0l.55-.46a0,0,0,0,1,0,0v0l-.55.48Zm.35,4.05s0,0,0,0v0l.2-.14,0,0a0,0,0,0,1,0,0Zm.2-4s-.08,0-.08-.09V18.57c0-.06,0-.08.08-.08s.08,0,.08.08v2.11C74.79,20.74,74.77,20.77,74.71,20.77Zm0,4s-.08,0-.08-.08V22.6c0-.06,0-.08.08-.08s.08,0,.08.08v2.13C74.79,24.79,74.77,24.81,74.71,24.81Zm0-14,0,0v-.28l0,0,0,0v.28Zm0,.76,0,0v-.29l0,0,0,0v.29Zm0,.75,0,0V12l0,0a0,0,0,0,1,0,0v.35Zm.35,0h-.35l0,0,0,0h.35l0,0Zm-.35,2.54,0,0v-.34s0,0,0,0,0,0,0,0v.34Zm.35-.34h-.35l0,0s0,0,0,0h.35s0,0,0,0Zm-.37,1.14v-.35l0,0,0,0v.35l0,0Zm0,2.05v-.4s0,0,0,0,0,0,0,0v.4l0,0S74.69,17.75,74.69,17.73Zm0,.86,0,0v-.43a0,0,0,0,1,0,0l0,0v.43Zm.35,0h-.35l0,0s0,0,0,0h.35s0,0,0,0Zm-.35,2.11s0,0,0,0l0,0h.35l0,0,0,0Zm0,.15,0,0v-.15l0,0a0,0,0,0,1,0,0v.15Zm0,.59v-.15l0,0,0,0v.15l0,0Zm0,.55v-.15a0,0,0,0,1,0,0l0,0V22l0,0A0,0,0,0,1,74.69,22Zm0,.61v-.21a0,0,0,0,1,0,0l0,0v.21l0,0Zm0,0,0,0s0,0,0,0h.35l0,0,0,0Zm0,2.48,0,0v-.35a0,0,0,0,1,0,0,0,0,0,0,1,0,0v.35Zm.35-.35h-.35l0,0a0,0,0,0,1,0,0h.35a0,0,0,0,1,0,0Zm-.37,1v-.26s0,0,0,0,0,0,0,0v.26l0,0A0,0,0,0,1,74.69,25.75Zm0,.79,0,0v-.28l0,0,0,0v.28Zm1.16-14.2h-.34l0,0,0,0h.34l0,0Zm0,2.2h-.34l0,0,0,0h.34s0,0,0,0Zm0,4.05h-.34l0,0,0,0h.34s0,0,0,0Zm0,2.11h-.34s0,0,0,0l0,0h.34l0,0S75.88,20.7,75.87,20.7Zm0,1.92h-.34s0,0,0,0l0,0h.34l0,0Zm0,2.13h-.34l0,0,0,0h.34a0,0,0,0,1,0,0S75.88,24.75,75.87,24.75Z"/><path d="M76.85,12.34H76.5l0,0a0,0,0,0,1,0,0h.35l0,0Zm0,12.41H76.5l0,0a0,0,0,0,1,0,0h.35a0,0,0,0,1,0,0Zm0,0H76.5l0,0a0,0,0,0,1,0,0h.35a0,0,0,0,1,0,0Zm.75-12.41h-.28l0,0,0,0h.28l0,0Zm.06,12.41h-.34l0,0,0,0h.34s0,0,0,0Zm0,0h-.34l0,0,0,0h.34s0,0,0,0Zm2.2.06h-2.2s-.08,0-.08-.08V12.32a.07.07,0,0,1,.08-.08h2.2a.07.07,0,0,1,.08.08V24.73C79.94,24.79,79.91,24.81,79.86,24.81Zm-2.2-14,0,0v-.28l0,0,0,0v.28Zm0,.76,0,0v-.29l0,0,0,0v.29Zm0,.75,0,0V12l0,0s0,0,0,0v.35Zm0,12.76,0,0v-.35a0,0,0,0,1,0,0s0,0,0,0v.35Zm0,.75,0,0v-.34s0,0,0,0,0,0,0,0v.34Zm0,0,0,0v-.34s0,0,0,0,0,0,0,0v.34Zm0,.76,0,0v-.35l0,0,0,0v.35Zm0-.07,0,0v-.28l0,0,0,0v.28Zm.08-1.89h2V12.4h-2Zm.6-12.31H78l0,0,0,0h.33l0,0Zm.7,2.2h-.35l0,0,0,0H79s0,0,0,0Zm0,4.05h-.35l0,0,0,0H79s0,0,0,0Zm0,2.11h-.35s0,0,0,0l0,0H79l0,0S79.05,20.7,79,20.7Zm0,1.92h-.35l0,0,0,0H79l0,0Zm0-10.28h-.27l0,0,0,0H79l0,0Zm.82,0h-.33l0,0a0,0,0,0,1,0,0h.33a0,0,0,0,1,0,0A0,0,0,0,1,79.86,12.3Zm0,2.2h-.33l0,0s0,0,0,0h.33s0,0,0,0A0,0,0,0,1,79.86,14.54Zm0,4.05h-.33l0,0s0,0,0,0h.33s0,0,0,0A0,0,0,0,1,79.86,18.59Zm0,2.11h-.33s0,0,0,0a0,0,0,0,1,0,0h.33a0,0,0,0,1,0,0S79.87,20.7,79.86,20.7Zm0,1.92h-.33a0,0,0,0,1,0,0s0,0,0,0h.33l0,0A0,0,0,0,1,79.86,22.62Zm6.57-8H79.86a.07.07,0,0,1-.08-.08c0-.06,0-.08.08-.08h6.49V12.32a.07.07,0,0,1,.08-.08c.06,0,.08,0,.08.08v2.2C86.51,14.57,86.49,14.6,86.43,14.6Zm0-2.2H79.86a.08.08,0,0,1,0-.16h6.57c.06,0,.08,0,.08.08S86.49,12.4,86.43,12.4Zm0,6.25H79.86a.07.07,0,0,1-.08-.08c0-.06,0-.08.08-.08h6.57c.06,0,.08,0,.08.08S86.49,18.65,86.43,18.65Zm0,2.12H79.86s-.08,0-.08-.09a.07.07,0,0,1,.08-.08h6.57c.06,0,.08,0,.08.08S86.49,20.77,86.43,20.77Zm0,1.91H79.86a.07.07,0,0,1-.08-.08c0-.06,0-.08.08-.08h6.57c.06,0,.08,0,.08.08S86.49,22.68,86.43,22.68Zm0,2.13H79.86s-.08,0-.08-.08a.07.07,0,0,1,.08-.08h6.57c.06,0,.08,0,.08.08S86.49,24.81,86.43,24.81Zm-6.59-1.3s0,0,0,0l1-.87s0,0,0,0,0,0,0,0h0l-1,.89Zm0-9.81h0l1.42-1.38h0v0L79.86,13.7Zm0-1.1h0l.35-.28h0v0l-.35.26Zm0,7.62h0s0,0,0,0l1.71-1.65s0,0,0,0,0,0,0,0h0l-1.71,1.65Zm0-1.08v0h0l.61-.55h0l-.61.55Zm0,5.61,0,0,0,0h0v0Zm0-.14a0,0,0,0,1,0,0l2-2s0,0,0,0v0l-2,2Zm0-13.78,0,0v-.28l0,0,0,0v.28S79.87,10.83,79.86,10.83Zm0,.76,0,0v-.29l0,0,0,0v.29A0,0,0,0,1,79.86,11.59Zm0,.75,0,0V12l0,0a0,0,0,0,1,0,0v.35A0,0,0,0,1,79.86,12.34Zm0,12.76,0,0v-.35l0,0a0,0,0,0,1,0,0v.35A0,0,0,0,1,79.86,25.1Zm0,.75,0,0v-.34l0,0s0,0,0,0v.34S79.87,25.85,79.86,25.85Zm0,0,0,0v-.34l0,0s0,0,0,0v.34S79.87,25.85,79.86,25.85Zm0,.76,0,0v-.35l0,0,0,0v.35A0,0,0,0,1,79.86,26.61Zm0-.07,0,0v-.28l0,0,0,0v.28S79.87,26.54,79.86,26.54Zm.33-12h0l2.17-2.2h0a0,0,0,0,1,0,0l-2.17,2.18,0,0Zm.28,6.18h0v0l2.18-2.11s0,0,0,0v0Zm.33,4.05s0,0,0,0l2.11-2.11s0,0,0,0,0,0,0,0h0s0,0,0,0l-2.11,2.13Zm.48-10.21a0,0,0,0,1,0,0v0l2.12-2.2h0v0L81.3,14.52Zm.27,6.16s0,0,0,0l2.18-2.11s0,0,0,0v0l-2.2,2.13Zm.28,4.05h0v0L84,22.6s0,0,0,0,0,0,0,0v0l-2.18,2.13Zm.55-10.21,0,0v0l2.12-2.2h0v0l-2.14,2.18Zm.27,6.16h0v0l2.2-2.11s0,0,0,0,0,0,0,0h0L82.67,20.7Zm.28,4.05h0s0,0,0,0l2.18-2.11a0,0,0,0,1,0,0v0Zm.45-10.23v0l2.2-2.2h0a0,0,0,0,1,0,0l-2.18,2.18,0,0Zm.37,6.18h0v0l2.19-2.11s0,0,0,0,0,0,0,0h0L83.77,20.7ZM84,24.75s0,0,0,0l2.18-2.11a0,0,0,0,1,0,0v0L84,24.75Zm.49-10.21a0,0,0,0,1,0,0v0l1.91-1.92h0v0l-1.91,1.92Zm.35,6.16h0v0l1.56-1.56s0,0,0,0v0Zm.26,4.05h0v0l1.3-1.24,0,0v0l-1.3,1.24Zm.49-10.21,0,0v0l.81-.82h0v0l-.83.82Zm.26,6.16h0v0l.55-.46s0,0,0,0v0l-.55.48Zm.35,4.05s0,0,0,0v0l.2-.14,0,0s0,0,0,0Zm.2-4s-.08,0-.08-.09V18.57c0-.06,0-.08.08-.08s.08,0,.08.08v2.11C86.49,20.74,86.47,20.77,86.41,20.77Zm0,4s-.08,0-.08-.08V22.6c0-.06,0-.08.08-.08s.08,0,.08.08v2.13C86.49,24.79,86.47,24.81,86.41,24.81Zm0-14,0,0v-.28l0,0,0,0v.28Zm0,.76,0,0v-.29l0,0,0,0v.29Zm0,.75,0,0V12l0,0s0,0,0,0v.35Zm.35,0h-.35l0,0,0,0h.35l0,0Zm0,2.2h-.35l0,0s0,0,0,0h.35s0,0,0,0Zm-.35.34,0,0v-.34s0,0,0,0,0,0,0,0v.34Zm0,.8v-.35l0,0,0,0v.35l0,0Zm0,2.05v-.4s0,0,0,0,0,0,0,0v.4l0,0S86.39,17.75,86.39,17.73Zm0,.86,0,0v-.43a0,0,0,0,1,0,0l0,0v.43Zm.35,0h-.35l0,0s0,0,0,0h.35s0,0,0,0Zm-.35,2.11s0,0,0,0l0,0h.35l0,0,0,0Zm0,.15,0,0v-.15l0,0s0,0,0,0v.15Zm0,.59v-.15l0,0,0,0v.15l0,0Zm0,.55v-.15a0,0,0,0,1,0,0l0,0V22l0,0A0,0,0,0,1,86.39,22Zm0,.61v-.21a0,0,0,0,1,0,0l0,0v.21l0,0Zm0,0,0,0s0,0,0,0h.35l0,0,0,0Zm0,2.48,0,0v-.35a0,0,0,0,1,0,0s0,0,0,0v.35Zm.35-.35h-.35l0,0a0,0,0,0,1,0,0h.35a0,0,0,0,1,0,0Zm-.37,1v-.26s0,0,0,0,0,0,0,0v.26l0,0A0,0,0,0,1,86.39,25.75Zm0,.79,0,0v-.28l0,0,0,0v.28Zm1.16-14.2h-.34l0,0,0,0h.34s0,0,0,0S87.59,12.34,87.57,12.34Zm0,2.2h-.34l0,0,0,0h.34s0,0,0,0S87.59,14.54,87.57,14.54Zm0,4.05h-.34l0,0,0,0h.34s0,0,0,0S87.59,18.59,87.57,18.59Zm0,2.11h-.34s0,0,0,0l0,0h.34s0,0,0,0S87.59,20.7,87.57,20.7Zm0,1.92h-.34s0,0,0,0l0,0h.34l0,0S87.59,22.62,87.57,22.62Zm0,2.13h-.34l0,0,0,0h.34s0,0,0,0S87.59,24.75,87.57,24.75Z"/><path d="M88.35,12.34h-.13a0,0,0,0,1,0,0,0,0,0,0,1,0,0h.13l0,0Zm0,12.41h-.13s0,0,0,0a0,0,0,0,1,0,0h.13a0,0,0,0,1,0,0S88.36,24.75,88.35,24.75Zm.48-12.41a0,0,0,0,1,0,0,0,0,0,0,1,0,0H89l0,0,0,0Zm0,12.41s0,0,0,0a0,0,0,0,1,0,0H89a0,0,0,0,1,0,0l0,0Zm2.34.06H89c-.06,0-.08,0-.08-.08V12.32c0-.05,0-.08.08-.08h2.19c.06,0,.09,0,.09.08s0,.08-.09.08H89.08V24.65h2V15.41a.07.07,0,0,1,.08-.08c.06,0,.09,0,.09.08v9.32C91.26,24.79,91.23,24.81,91.17,24.81ZM89,10.83l0,0v-.28s0,0,0,0l0,0v.28Zm0,.76,0,0v-.29s0,0,0,0l0,0v.29Zm0,.73V12s0,0,0,0l0,0v.35l0,0S89,12.33,89,12.32Zm0,1.73h0v0l1.72-1.73h0a0,0,0,0,1,0,0ZM89,13h0v0l.61-.63h0v0Zm0,2.2h0v0l2.19-2.18h0v0Zm0,1.1h0v0L91.15,14h0v0Zm0,1s0,0,0,0v0l2.19-2.13h0v0L89,17.26Zm0,1.09s0,0,0,0v0l2.19-2.19h0v0L89,18.36Zm0,1.1,0,0v0l2.19-2.2h0v0L89,19.46Zm0,1.08h0v0l2.19-2.2h0v0Zm0,1.1h0v0l2.19-2.2a0,0,0,0,1,0,0v0Zm0,1.1h0v0l2.19-2.2h0v0Zm0,1h0v0l2.19-2.12a0,0,0,0,1,0,0v0Zm0,1.3,0,0v-.35s0,0,0,0a0,0,0,0,1,0,0v.35Zm0,.75,0,0v-.34s0,0,0,0l0,0v.34Zm0,.74v-.35s0,0,0,0l0,0v.35l0,0S89,26.6,89,26.59Zm.16-1.84s0,0,0,0l2-2h0v0l-2,2Zm1.1,0h0v0l1-.95h0v0l-1,.95Zm.4-9.89-.14-.12a0,0,0,0,1,0,0h0l.14.14v0l0,0Zm0-3h0l-.12-.2v0s0,0,0,0l.14.2v0Zm.55.49h0l-.2-.2v0h0l.21.2v0Zm0,3.07-.2-.2v0h0l.21.2v0l0,0Zm6.5,3.5s-.05,0-.06,0l-6.48-6.51a.13.13,0,0,1,0-.12h.13l6.47,6.51a.08.08,0,0,1,0,.12A.07.07,0,0,1,97.65,18.91Zm0,3.1h-.06l-6.48-6.52a.13.13,0,0,1,0-.12.09.09,0,0,1,.13,0l6.47,6.51a.09.09,0,0,1,0,.13s0,0,0,0Zm-6.48-6.52s-.08,0-.08-.08V12.32a.07.07,0,0,1,.08-.08c.06,0,.09,0,.09.08v3.09C91.26,15.47,91.23,15.49,91.17,15.49Zm0-4.66,0,0v-.28l0,0,0,0v.28S91.19,10.83,91.17,10.83Zm0,.76,0,0v-.29l0,0,0,0v.29S91.19,11.59,91.17,11.59Zm0,.75a0,0,0,0,1,0,0V12l0,0,0,0v.35S91.19,12.34,91.17,12.34Zm0,0a0,0,0,0,1,0,0l0,0h.15l0,0,0,0Zm0,.61h0v0l.27-.35s0,0,0,0,0,0,0,0h0l-.25.35Zm0,1.1h0v0l.82-.9s0,0,0,0,0,0,0,0h0l-.8.9Zm0,1.1h0v0l1.37-1.43s0,0,0,0,0,0,0,0v0L91.2,15.15Zm0,6.25,0,0v-.21l0,0s0,0,0,0v.21S91.19,21.4,91.17,21.4Zm0,.55,0,0v-.15l0,0,0,0v.15S91.19,22,91.17,22Zm0,3.15,0,0v-.35l0,0s0,0,0,0v.35S91.19,25.1,91.17,25.1Zm0-.35s0,0,0,0l0,0h.15a0,0,0,0,1,0,0l0,0Zm0,1.1,0,0v-.34l0,0,0,0v.34S91.19,25.85,91.17,25.85Zm0,.76a0,0,0,0,1,0,0v-.35l0,0,0,0v.35S91.19,26.61,91.17,26.61Zm.39-10.77a0,0,0,0,1,0,0l1.49-1.57h0v0l-1.51,1.59Zm.14-3.5a0,0,0,0,1,0,0,0,0,0,0,1,0,0h.15l0,0,0,0Zm0,12.41s0,0,0,0a0,0,0,0,1,0,0h.15a0,0,0,0,1,0,0l0,0Zm.41-8.36h0v0l1.51-1.57h0v0l-1.51,1.59Zm.49.47h0v0l1.57-1.51h0v0Zm.55.55h0l1.57-1.51s0,0,0,0a0,0,0,0,1,0,0Zm.53.55s0,0,0,0h0l1.57-1.53a0,0,0,0,1,0,0s0,0,0,0h0L93.7,18Zm.55.55s0,0,0,0,0,0,0,0L95.79,17h0s0,0,0,0l-1.57,1.51Zm.55.55h0v0l1.58-1.53h0a0,0,0,0,1,0,0L94.8,19.06Zm.55.55h0v-.05l1.58-1.5h0v0l-1.56,1.51Zm.55.54h0v0l1.56-1.5h0v0l-1.56,1.5Zm.55.55h0v0l1.24-1.22s0,0,0,0a0,0,0,0,1,0,0v0Zm.67-8.36H97s0,0,0,0,0,0,0,0h.12l0,0ZM97,21.25h0v0l.7-.67s0,0,0,0v0Zm.12,3.5H97s0,0,0,0,0,0,0,0h.12a0,0,0,0,1,0,0S97.11,24.75,97.1,24.75Zm.42-2.95h0s0,0,0,0l.15-.12s0,0,0,0a0,0,0,0,1,0,0v0Zm.13-9.46h-.13l0,0,0,0h.13l0,0Zm0,12.41h-.13s0,0,0,0a0,0,0,0,1,0,0h.13a0,0,0,0,1,0,0S97.66,24.75,97.65,24.75Zm2.19.06H97.65c-.06,0-.08,0-.08-.08v-2.8c0-.06,0-.09.08-.09s.08,0,.08.09v2.72h2V12.4h-2v6.43c0,.06,0,.08-.08.08s-.08,0-.08-.08V12.32c0-.05,0-.08.08-.08h2.19c.06,0,.09,0,.09.08V24.73C99.93,24.79,99.9,24.81,99.84,24.81ZM97.65,22c-.06,0-.08,0-.08-.08v-3.1s0-.08.08-.08a.07.07,0,0,1,.08.08v3.1A.07.07,0,0,1,97.65,22Zm.2-3-.2-.21s0,0,0,0h0l.2.23v0Zm-.2-8.23,0,0v-.28l0,0,0,0v.28S97.66,10.83,97.65,10.83Zm0,.76,0,0v-.29l0,0,0,0v.29Zm0,.75s0,0,0,0V12l0,0,0,0v.35Zm0,12.76,0,0v-.35l0,0a0,0,0,0,1,0,0v.35A0,0,0,0,1,97.65,25.1Zm0,.75,0,0v-.34l0,0,0,0v.34S97.66,25.85,97.65,25.85Zm0,.76s0,0,0,0v-.35l0,0,0,0v.35A0,0,0,0,1,97.65,26.61Zm.2-4.46-.2-.2s0,0,0-.05h0l.2.21v0Zm.49-2.61h0l-.14-.14v0h0l.14.14v0Zm0,3.1,0,0-.14-.21s0,0,0,0,0,0,0,0a0,0,0,0,1,0,0l.14.21,0,0Zm1.5-11.81,0,0v-.28l0,0,0,0v.28Zm0,.76,0,0v-.29l0,0,0,0v.29Zm0,.73V12a0,0,0,0,1,0,0l0,0v.35l0,0Zm.15,0h-.13l0,0,0,0H100a0,0,0,0,1,0,0A0,0,0,0,1,100,12.3ZM99.84,25.1l0,0v-.35a0,0,0,0,1,0,0s0,0,0,0v.35Zm.13-.35h-.13s0,0,0,0a0,0,0,0,1,0,0H100a0,0,0,0,1,0,0S100,24.75,100,24.75Zm-.13,1.1,0,0v-.34s0,0,0,0l0,0v.34Zm0,.74v-.35l0,0,0,0v.35l0,0A0,0,0,0,1,99.82,26.59Zm.57-14.25a0,0,0,0,1,0,0,0,0,0,0,1,0,0h.21l0,0,0,0Zm0,12.41s0,0,0,0a0,0,0,0,1,0,0h.21a0,0,0,0,1,0,0l0,0Z"/><path d="M53.65,30.75h-.41l0,0a0,0,0,0,1,0,0h.41a0,0,0,0,1,0,0S53.66,30.75,53.65,30.75Zm0,12.42h-.41l0,0s0,0,0,0h.41s0,0,0,0Zm.75-12.42h-.34l0,0,0,0h.34a0,0,0,0,1,0,0S54.41,30.75,54.4,30.75Zm.06,12.42h-.4l0,0,0,0h.4s0,0,0,0S54.48,43.17,54.46,43.17Zm2.2.06h-2.2a.07.07,0,0,1-.08-.08V30.73a.07.07,0,0,1,.08-.08h2.2a.07.07,0,0,1,.08.08V43.15A.07.07,0,0,1,56.66,43.23Zm-2.2-14,0,0v-.29l0,0,0,0v.29S54.48,29.25,54.46,29.25Zm0,.75,0,0v-.29l0,0,0,0V30S54.48,30,54.46,30Zm0,.75,0,0v-.34l0,0s0,0,0,0v.34S54.48,30.75,54.46,30.75Zm0,.47h0s0,0,0,0l.47-.49h0v0l-.49.47Zm0,5.43v0s0,0,0,0h0l2.18-2.19h0v0l-2.2,2.17S54.48,36.65,54.46,36.65Zm0,1.1v0h0l2.18-2.2h0v0l-2.2,2.18S54.48,37.75,54.46,37.75Zm0,5.76,0,0v-.34l0,0s0,0,0,0v.34S54.48,43.51,54.46,43.51Zm0,.75,0,0V43.9l0,0s0,0,0,0v.34S54.48,44.26,54.46,44.26Zm0,.7,0,0v-.29l0,0,0,0v.29S54.48,45,54.46,45Zm0-12.7s0,0,0,0L56,30.71h0s0,0,0,0l-1.57,1.51Zm0,1.1s0,0,0,0l2.18-2.2h0v0l-2.2,2.2Zm0,1.1s0,0,0,0l2.18-2.2h0v0l-2.2,2.2Zm0,1.09s0,0,0,0l2.18-2.19h0v0l-2.2,2.19Zm0,3.22a0,0,0,0,1,0,0l2.18-2.12h0v0l-2.2,2.14Zm0,1.1a0,0,0,0,1,0,0l2.18-2.12h0v0l-2.2,2.14Zm0,1.1s0,0,0,0l2.18-2.2h0v0L54.48,41Zm0,1.1s0,0,0,0l2.18-2.2h0v0l-2.2,2.2Zm0,1.1s0,0,0,0l2.18-2.2h0v0l-2.2,2.2Zm.08-.11h2V30.81h-2Zm.55-12.31h-.28l0,0,0,0h.28s0,0,0,0Zm.76,2.2h-.41l0,0a0,0,0,0,1,0,0h.41a0,0,0,0,1,0,0Zm-.41,8,0,0s0,0,0,0h.41l0,0,0,0Zm.06,2.2h0v0L56.64,42h0v0l-1.16,1.1Zm.35-12.42h-.29l0,0,0,0h.29a0,0,0,0,1,0,0Zm.81,0h-.41l0,0a0,0,0,0,1,0,0h.41a0,0,0,0,1,0,0S56.67,30.75,56.66,30.75Zm0,2.2h-.41l0,0,0,0h.41a0,0,0,0,1,0,0A0,0,0,0,1,56.66,32.91Zm0,8h-.41l0,0s0,0,0,0h.41l0,0A0,0,0,0,1,56.66,41Zm2.18-10.16H56.66s-.08,0-.08-.08a.07.07,0,0,1,.08-.08h2.18a.07.07,0,0,1,.08.08C58.92,30.79,58.89,30.81,58.84,30.81Zm0,2.2H56.66a.08.08,0,0,1,0-.16h2.18a.08.08,0,0,1,0,.16Zm0,8H56.66a.07.07,0,0,1-.08-.08c0-.06,0-.08.08-.08h2.18s.08,0,.08.08A.07.07,0,0,1,58.84,41Zm0,2.2H56.66a.07.07,0,0,1-.08-.08c0-.06,0-.09.08-.09h2.18s.08,0,.08.09A.07.07,0,0,1,58.84,43.23Zm-2.18-.06H56.6l0,0s0,0,0,0h.06s0,0,0,0A0,0,0,0,1,56.66,43.17Zm0-13.92,0,0v-.29a0,0,0,0,1,0,0l0,0v.29A0,0,0,0,1,56.66,29.25Zm0,.75,0,0v-.29a0,0,0,0,1,0,0l0,0V30A0,0,0,0,1,56.66,30Zm0,.75,0,0v-.34s0,0,0,0,0,0,0,0v.34S56.67,30.75,56.66,30.75Zm0,12.76,0,0v-.34s0,0,0,0,0,0,0,0v.34Zm0,.75,0,0V43.9s0,0,0,0,0,0,0,0v.34S56.67,44.26,56.66,44.26Zm0,0,0,0V43.9s0,0,0,0,0,0,0,0v.34S56.67,44.26,56.66,44.26Zm0,.76,0,0v-.35l0,0,0,0V45A0,0,0,0,1,56.66,45Zm0-.06,0,0v-.29l0,0,0,0v.29A0,0,0,0,1,56.66,45Zm2.16-1.73c-.06,0-.08,0-.08-.08s0-.09.08-.09a5.9,5.9,0,0,0,2.37-.47,6.07,6.07,0,0,0,1.94-1.32,5.83,5.83,0,0,0,1.31-2,6.16,6.16,0,0,0-1.31-6.72,6.21,6.21,0,0,0-1.94-1.31,5.91,5.91,0,0,0-2.37-.48c-.06,0-.08,0-.08-.08s0-.08.08-.08a6.21,6.21,0,0,1,2.39.47,6.51,6.51,0,0,1,2,1.36,6.31,6.31,0,0,1,1.37,2.05,6.39,6.39,0,0,1,0,4.81,6.16,6.16,0,0,1-1.37,2,6.16,6.16,0,0,1-4.43,1.85Zm0-2.2c-.06,0-.08,0-.08-.08s0-.08.08-.08a4,4,0,0,0,1.54-.31,3.85,3.85,0,0,0,1.28-.84,4.06,4.06,0,0,0,.85-1.26,3.7,3.7,0,0,0,.32-1.52,3.78,3.78,0,0,0-.32-1.53,4.13,4.13,0,0,0-.85-1.25A4.08,4.08,0,0,0,58.82,33c-.06,0-.08,0-.08-.08s0-.08.08-.08a4.17,4.17,0,0,1,1.61.32,4.42,4.42,0,0,1,1.32.88,4,4,0,0,1,.89,1.29,4,4,0,0,1,0,3.2,4,4,0,0,1-.89,1.29,4.39,4.39,0,0,1-1.32.87A4,4,0,0,1,58.82,41Zm0-8c-.06,0-.08,0-.08-.08v-2.2c0-.05,0-.08.08-.08a.07.07,0,0,1,.08.08v2.2A.07.07,0,0,1,58.84,33Zm0,10.22c-.06,0-.08,0-.08-.08V41c0-.06,0-.08.08-.08s.08,0,.08.08v2.14A.07.07,0,0,1,58.84,43.23Zm0-14,0,0v-.29l0,0,0,0v.29Zm0,.75,0,0v-.29l0,0,0,0V30Zm0,.75,0,0v-.34l0,0s0,0,0,0v.34S58.85,30.75,58.84,30.75Zm0,2.4,0,0v-.2l0,0a0,0,0,0,1,0,0v.2S58.85,33.15,58.84,33.15Zm0,.7,0,0v-.29l0,0,0,0v.29A0,0,0,0,1,58.84,33.85Zm0,6.51,0,0v-.21l0,0a0,0,0,0,1,0,0v.21Zm0,.67s0,0,0,0v-.27l0,0a0,0,0,0,1,0,0V41A0,0,0,0,1,58.84,41Zm0,2.48,0,0v-.34l0,0s0,0,0,0v.34Zm0,.75,0,0V43.9l0,0s0,0,0,0v.34S58.85,44.26,58.84,44.26Zm0,.76,0,0v-.35l0,0,0,0V45Zm3.21-8h-.4l0,0,0,0h.4s0,0,0,0S62.07,37,62.05,37Zm.84,0h-.41l0,0,0,0h.41l0,0Zm2.18.06H62.89c-.06,0-.08,0-.08-.08s0-.08.08-.08h2.18a.08.08,0,0,1,0,.16Zm.34-.06h-.34l0,0,0,0h.34l0,0A0,0,0,0,1,65.41,37Zm.82,0H65.9l0,0,0,0h.33l0,0A0,0,0,0,1,66.23,37Z"/><path d="M66.25,30.75H65.9l0,0a0,0,0,0,1,0,0h.35a0,0,0,0,1,0,0Zm0,12.42H65.9l0,0s0,0,0,0h.35s0,0,0,0Zm0,0H65.9l0,0s0,0,0,0h.35s0,0,0,0ZM67,30.75h-.29l0,0,0,0H67a0,0,0,0,1,0,0Zm.06,12.42h-.35l0,0,0,0h.35s0,0,0,0Zm0,0h-.35l0,0,0,0h.35s0,0,0,0Zm2.2.06h-2.2a.07.07,0,0,1-.08-.08V30.73a.07.07,0,0,1,.08-.08h2.2a.07.07,0,0,1,.08.08V43.15A.07.07,0,0,1,69.26,43.23Zm-2.2-14,0,0v-.29a0,0,0,0,1,0,0l0,0v.29Zm0,.75,0,0v-.29a0,0,0,0,1,0,0l0,0V30Zm0,.75,0,0v-.34s0,0,0,0,0,0,0,0v.34Zm0,12.76,0,0v-.34s0,0,0,0,0,0,0,0v.34Zm0,.75,0,0V43.9s0,0,0,0,0,0,0,0v.34Zm0,0,0,0V43.9s0,0,0,0,0,0,0,0v.34Zm0,.76,0,0v-.35a0,0,0,0,1,0,0l0,0V45Zm0-.06,0,0v-.29a0,0,0,0,1,0,0l0,0v.29Zm.08-1.9h2V30.81h-2Zm.59-12.31h-.32l0,0a0,0,0,0,1,0,0h.32s0,0,0,0S67.75,30.75,67.73,30.75Zm.7,2.2h-.34l0,0,0,0h.34s0,0,0,0S68.45,33,68.43,33Zm0,4h-.34l0,0,0,0h.34s0,0,0,0S68.45,37,68.43,37Zm0,2.12h-.34s0,0,0,0l0,0h.34s0,0,0,0S68.45,39.12,68.43,39.12Zm0,1.91h-.34s0,0,0,0l0,0h.34l0,0S68.45,41,68.43,41Zm0-10.28h-.26l0,0s0,0,0,0h.26s0,0,0,0S68.45,30.75,68.43,30.75Zm.82,0h-.32l0,0s0,0,0,0h.32s0,0,0,0S69.27,30.75,69.25,30.75Zm0,2.2h-.32l0,0s0,0,0,0h.32s0,0,0,0S69.27,33,69.25,33Zm0,4h-.32l0,0s0,0,0,0h.32s0,0,0,0S69.27,37,69.25,37Zm0,2.12h-.32s0,0,0,0,0,0,0,0h.32s0,0,0,0S69.27,39.12,69.25,39.12Zm0,1.91h-.32s0,0,0,0,0,0,0,0h.32l0,0S69.27,41,69.25,41Zm6.58-8H69.26c-.06,0-.08,0-.08-.08s0-.08.08-.08h6.49V30.73a.08.08,0,0,1,.16,0v2.2A.07.07,0,0,1,75.83,33Zm0-2.2H69.26c-.06,0-.08,0-.08-.08s0-.08.08-.08h6.57a.07.07,0,0,1,.08.08C75.91,30.79,75.88,30.81,75.83,30.81Zm0,6.25H69.26c-.06,0-.08,0-.08-.08s0-.08.08-.08h6.57a.08.08,0,0,1,0,.16Zm0,2.12H69.26c-.06,0-.08,0-.08-.08s0-.09.08-.09h6.57s.08,0,.08.09A.07.07,0,0,1,75.83,39.18Zm0,1.91H69.26c-.06,0-.08,0-.08-.08s0-.08.08-.08h6.57s.08,0,.08.08A.07.07,0,0,1,75.83,41.09Zm0,2.14H69.26c-.06,0-.08,0-.08-.08s0-.09.08-.09h6.57s.08,0,.08.09A.07.07,0,0,1,75.83,43.23Zm-6.59-1.31s0,0,0,0l1-.87v0s0,0,0,0,0,0,0,0h0l-.95.89Zm0-9.8h0l1.42-1.39h0v0l-1.44,1.37Zm0-1.1h0s0,0,0,0l.34-.29h0v0l-.34.27Zm0,7.61s0,0,0,0h0L71,37s0,0,0,0v0h0l-1.71,1.65Zm0-1.08v0h0s0,0,0,0l.61-.55h0l-.61.55Zm0,5.62,0,0,0,0h0v0Zm0-.15s0,0,0,0l2-2h0v0l-2,2Zm0-13.77,0,0v-.29l0,0,0,0v.29Zm0,.75,0,0v-.29l0,0,0,0V30Zm0,.75,0,0v-.34l0,0s0,0,0,0v.34S69.27,30.75,69.26,30.75Zm0,12.76,0,0v-.34l0,0s0,0,0,0v.34Zm0,.75,0,0V43.9l0,0s0,0,0,0v.34S69.27,44.26,69.26,44.26Zm0,0,0,0V43.9l0,0s0,0,0,0v.34S69.27,44.26,69.26,44.26Zm0,.76,0,0v-.35l0,0,0,0V45Zm0-.06,0,0v-.29l0,0,0,0v.29A0,0,0,0,1,69.26,45Zm.32-12h0s0,0,0,0l2.18-2.2h0s0,0,0,0L69.6,32.93l0,0Zm.29,6.19h0v0L72,37s0,0,0,0v0Zm.32,4.05s0,0,0,0L72.31,41s0,0,0,0,0,0,0,0,0,0,0,0h0l-2.12,2.14ZM70.68,33a0,0,0,0,1,0,0v0l2.12-2.2h0v0L70.7,32.93ZM71,39.12s0,0,0,0L73.12,37h0v0L71,39.12Zm.28,4.05h0v0L73.41,41s0,0,0,0,0,0,0,0v0l-2.18,2.14ZM71.78,33a0,0,0,0,1,0,0v0l2.12-2.2h0v0l-2.14,2.18Zm.27,6.17h0v0L74.22,37v0s0,0,0,0h0l-2.17,2.14Zm.28,4.05h0s0,0,0,0L74.49,41h0v0Zm.45-10.24v0l2.2-2.2h0s0,0,0,0l-2.18,2.18,0,0Zm.36,6.19h0v0L75.32,37v0s0,0,0,0h0l-2.18,2.14Zm.27,4.05s0,0,0,0L75.59,41h0v0l-2.2,2.14ZM73.9,33s0,0,0,0v0L75.79,31a0,0,0,0,1,0,0v0l-1.91,1.91Zm.34,6.17h0v0l1.57-1.57h0v0Zm.27,4.05h0v0l1.3-1.25,0,0v0l-1.3,1.25ZM75,33s0,0,0,0v0l.81-.81a0,0,0,0,1,0,0v0l-.83.81Zm.26,6.17h0v0l.55-.47a0,0,0,0,1,0,0v0l-.55.49Zm.35,4.05s0,0,0,0v0l.2-.15,0,0s0,0,0,0Zm.2-4a.07.07,0,0,1-.08-.08V37a.08.08,0,1,1,.16,0V39.1A.07.07,0,0,1,75.81,39.18Zm0,4a.07.07,0,0,1-.08-.08V41c0-.06,0-.08.08-.08s.08,0,.08.08v2.14A.07.07,0,0,1,75.81,43.23Zm0-14,0,0v-.29a0,0,0,0,1,0,0l0,0v.29Zm0,.75,0,0v-.29a0,0,0,0,1,0,0l0,0V30Zm0,.75,0,0v-.34s0,0,0,0,0,0,0,0v.34Zm.35,0h-.35l0,0a0,0,0,0,1,0,0h.35a0,0,0,0,1,0,0Zm-.35,2.55,0,0v-.35a0,0,0,0,1,0,0l0,0v.35Zm.35-.35h-.35l0,0a0,0,0,0,1,0,0h.35a0,0,0,0,1,0,0Zm-.37,1.14v-.35a0,0,0,0,1,0,0l0,0v.35l0,0A0,0,0,0,1,75.79,34.09Zm0,2v-.4s0,0,0,0,0,0,0,0v.4l0,0S75.79,36.16,75.79,36.14Zm0,.86,0,0v-.43a0,0,0,0,1,0,0l0,0V37Zm.35,0h-.35l0,0a0,0,0,0,1,0,0h.35l0,0Zm-.35,2.12a0,0,0,0,1,0,0s0,0,0,0h.35s0,0,0,0l0,0Zm0,.14,0,0V39.1s0,0,0,0,0,0,0,0v.14Zm0,.59v-.14s0,0,0,0l0,0v.14l0,0A0,0,0,0,1,75.79,39.85Zm0,.55v-.14s0,0,0,0l0,0v.14l0,0A0,0,0,0,1,75.79,40.4Zm0,.61v-.2s0,0,0,0l0,0V41l0,0A0,0,0,0,1,75.79,41Zm0,0a0,0,0,0,1,0,0,0,0,0,0,1,0,0h.35l0,0,0,0Zm0,2.48,0,0v-.34s0,0,0,0,0,0,0,0v.34Zm.35-.34h-.35l0,0s0,0,0,0h.35s0,0,0,0Zm-.37,1V43.9s0,0,0,0,0,0,0,0v.26l0,0S75.79,44.18,75.79,44.16Zm0,.8,0,0v-.29a0,0,0,0,1,0,0l0,0v.29ZM77,30.75h-.35l0,0,0,0H77a0,0,0,0,1,0,0S77,30.75,77,30.75ZM77,33h-.35l0,0,0,0H77a0,0,0,0,1,0,0A0,0,0,0,1,77,32.91Zm0,4h-.35l0,0,0,0H77a0,0,0,0,1,0,0A0,0,0,0,1,77,37Zm0,2.12h-.35l0,0,0,0H77s0,0,0,0A0,0,0,0,1,77,39.12ZM77,41h-.35a0,0,0,0,1,0,0l0,0H77l0,0A0,0,0,0,1,77,41Zm0,2.14h-.35l0,0,0,0H77s0,0,0,0A0,0,0,0,1,77,43.17Z"/><path d="M77,29.31,76.77,29s0,0,0,0h0l.2.35v0Zm.08,1.44s0,0,0,0a0,0,0,0,1,0,0h.21l0,0,0,0Zm.35-.75h0l-.21-.29s0,0,0,0h0l.21.27S77.45,30,77.42,30Zm.41.75h0l-.2-.43v0h0l.21.43S77.84,30.75,77.83,30.75Zm-.15,0s0,0,0,0a0,0,0,0,1,0,0h.15l0,0,0,0ZM85,43.23a.12.12,0,0,1-.08,0L77.74,30.77v-.08a.12.12,0,0,1,.09,0h2.52a.1.1,0,0,1,.08,0l4.58,8,4.56-8a.09.09,0,0,1,.08,0h2.52a.09.09,0,0,1,.08,0v.08L85.07,43.19ZM78,30.81,85,43l7-12.17H89.69l-4.62,8.06s0,0-.06,0a.09.09,0,0,1-.08,0l-4.62-8.06Zm.2.55h0l.61-.63h0s0,0,0,0Zm.41.69h0v0l1.3-1.3h0s0,0,0,0Zm.41.7h0v0l1.57-1.65h0v0L79,32.75Zm.54-3.44h0l-.2-.35v0h0l.2.35S79.55,29.31,79.53,29.31Zm-.14,4.13s0,0,0,0v0L81,31.81h0v0l-1.57,1.57ZM79.86,30l-.14-.29v0h0l.12.29v0Zm-.12,4.11h0v0l1.65-1.59h0s0,0,0,0l-1.63,1.59Zm.61-3.36h0l-.27-.43v0h0l.29.43v0Zm-.21,4h0v0l1.59-1.57v0s0,0,0,0v0L80.17,34.8Zm.21-4s0,0,0,0,0,0,0,0h.14l0,0,0,0Zm.18,4.72v0l1.59-1.58h0s0,0,0,0l-1.57,1.56,0,0Zm.37-4.72s0,0,0,0,0,0,0,0H81l0,0,0,0ZM81,36.17h0l0,0,1.57-1.58h0s0,0,0,0L81,36.17Zm.41.69s0,0,0,0l1.56-1.57v0s0,0,0,0h0s0,0,0,0l-1.56,1.59Zm.34.69v0h0s0,0,0,0l1.63-1.57h0v0l-1.65,1.57S81.73,37.55,81.71,37.55Zm.41.69v0h0l1.57-1.59h0s0,0,0,0l-1.57,1.57Zm.43.67h0s0,0,0,0l1.56-1.57h0v0Zm.4.69h0v0L84.5,38a0,0,0,0,1,0,0v0Zm.41.7a0,0,0,0,1,0,0v0l1.57-1.59h0v0l-1.57,1.57Zm.35.67h0v0L85,39.71h0ZM84,45l0,0,.2-.43h0v0L84,45Zm.14-3.36h0v0l.9-.81s0,0,0,0,0,0,0,0h0Zm.27,2.54s0,0,0,0l.14-.2h0v0l-.14.2S84.39,44.2,84.38,44.2Zm.12-1.87v0l.49-.49h0s0,0,0,0l-.47.47,0,0S84.5,42.35,84.5,42.33Zm0,1.71.14-.28s0,0,0,0,0,0,0,0l-.14.26,0,0Zm.29-.47h0l.2-.4s0,0,0,0v0l-.2.4Zm.08-.12h0v0l.14-.26s0,0,0,0v0l-.12.26Zm.14-.22c-.06,0-.08,0-.08-.08V38.83s0-.08.08-.08a.07.07,0,0,1,.08.08v4.32A.07.07,0,0,1,85,43.23Zm.2.34h0l-.2-.4v0s0,0,0,0l.2.4s0,0,0,0Zm.41.63s0,0,0,0l-.2-.2v0h0l.2.2h0ZM86,45h0l-.21-.43v0h0l.21.43A0,0,0,0,1,86,45ZM89.1,30.75H89s0,0,0,0l0,0h.14l0,0S89.11,30.75,89.1,30.75Zm.55,0h-.14s0,0,0,0l0,0h.14l0,0S89.66,30.75,89.65,30.75Zm0,0,0,0,.2-.43h0l0,0-.2.43Zm.47-.75s0,0,0,0l.12-.29h0v0l-.14.29Zm.34-.69,0,0,.21-.35h0v0l-.21.35Zm1.71,1.44,0,0,.21-.43h0v0l-.21.43Zm.14,0h-.14s0,0,0,0l0,0h.14l0,0S92.33,30.75,92.31,30.75Zm.27-.75s0,0,0,0h0l.12-.29a0,0,0,0,1,0,0v0L92.6,30Zm.14.75s0,0,0,0l0,0h.14l0,0,0,0ZM93,29.31h0s0,0,0,0l.2-.35s0,0,0,0h0s0,0,0,0Z"/><path d="M93.13,30.75h-.35l0,0a0,0,0,0,1,0,0h.35a0,0,0,0,1,0,0Zm0,12.42h-.35l0,0s0,0,0,0h.35s0,0,0,0Zm0,0h-.35l0,0s0,0,0,0h.35s0,0,0,0Zm.75-12.42H93.6l0,0,0,0h.28s0,0,0,0Zm.06,12.42H93.6l0,0,0,0h.34s0,0,0,0Zm0,0H93.6l0,0,0,0h.34s0,0,0,0Zm2.2.06h-2.2a.07.07,0,0,1-.08-.08V30.73a.07.07,0,0,1,.08-.08h2.2a.07.07,0,0,1,.08.08V43.15A.07.07,0,0,1,96.14,43.23Zm-2.2-14,0,0v-.29a0,0,0,0,1,0,0l0,0v.29Zm0,.75,0,0v-.29a0,0,0,0,1,0,0l0,0V30Zm0,.75,0,0v-.34s0,0,0,0,0,0,0,0v.34Zm0,12.76,0,0v-.34s0,0,0,0,0,0,0,0v.34Zm0,.75,0,0V43.9s0,0,0,0,0,0,0,0v.34Zm0,0,0,0V43.9s0,0,0,0,0,0,0,0v.34Zm0,.76,0,0v-.35l0,0,0,0V45Zm0-.06,0,0v-.29l0,0,0,0v.29Zm.08-1.9h2V30.81H94Zm.6-12.31h-.33l0,0a0,0,0,0,1,0,0h.33a0,0,0,0,1,0,0S94.63,30.75,94.62,30.75Zm.7,2.2H95l0,0,0,0h.35a0,0,0,0,1,0,0A0,0,0,0,1,95.32,32.91Zm0,4H95l0,0,0,0h.35l0,0A0,0,0,0,1,95.32,37Zm0,2.12H95a0,0,0,0,1,0,0l0,0h.35s0,0,0,0Zm0,1.91H95a0,0,0,0,1,0,0l0,0h.35l0,0A0,0,0,0,1,95.32,41Zm0-10.28h-.27l0,0a0,0,0,0,1,0,0h.27a0,0,0,0,1,0,0S95.33,30.75,95.32,30.75Zm.82,0h-.33l0,0a0,0,0,0,1,0,0h.33a0,0,0,0,1,0,0S96.15,30.75,96.14,30.75Zm0,2.2h-.33l0,0a0,0,0,0,1,0,0h.33a0,0,0,0,1,0,0A0,0,0,0,1,96.14,32.91Zm0,4h-.33l0,0a0,0,0,0,1,0,0h.33a0,0,0,0,1,0,0A0,0,0,0,1,96.14,37Zm0,2.12h-.33a0,0,0,0,1,0,0s0,0,0,0h.33s0,0,0,0A0,0,0,0,1,96.14,39.12Zm0,1.91h-.33a0,0,0,0,1,0,0,0,0,0,0,1,0,0h.33l0,0A0,0,0,0,1,96.14,41Zm6.57-8H96.14a.08.08,0,1,1,0-.16h6.49V30.73a.07.07,0,0,1,.08-.08c.06,0,.08,0,.08.08v2.2S102.77,33,102.71,33Zm0-2.2H96.14s-.08,0-.08-.08a.07.07,0,0,1,.08-.08h6.57c.06,0,.08,0,.08.08S102.77,30.81,102.71,30.81Zm0,6.25H96.14a.08.08,0,1,1,0-.16h6.57c.06,0,.08,0,.08.08S102.77,37.06,102.71,37.06Zm0,2.12H96.14a.07.07,0,0,1-.08-.08c0-.06,0-.09.08-.09h6.57c.06,0,.08,0,.08.09S102.77,39.18,102.71,39.18Zm0,1.91H96.14a.07.07,0,0,1-.08-.08c0-.06,0-.08.08-.08h6.57c.06,0,.08,0,.08.08S102.77,41.09,102.71,41.09Zm0,2.14H96.14a.07.07,0,0,1-.08-.08c0-.06,0-.09.08-.09h6.57c.06,0,.08,0,.08.09S102.77,43.23,102.71,43.23Zm-6.59-1.31s0,0,0,0l1-.87s0,0,0,0v0s0,0,0,0h0l-1,.89Zm0-9.8h0l1.42-1.39h0v0l-1.45,1.37Zm0-1.1h0s0,0,0,0l.35-.29h0v0l-.35.27Zm0,7.61h0L97.83,37s0,0,0,0,0,0,0,0h0l-1.71,1.65Zm0-1.08v0h0s0,0,0,0l.61-.55h0l-.61.55Zm0,5.62,0,0,0,0h0v0Zm0-.15s0,0,0,0l2-2h0v0l-2,2Zm0-13.77,0,0v-.29l0,0,0,0v.29A0,0,0,0,1,96.14,29.25Zm0,.75,0,0v-.29l0,0,0,0V30A0,0,0,0,1,96.14,30Zm0,.75,0,0v-.34l0,0s0,0,0,0v.34S96.15,30.75,96.14,30.75Zm0,12.76,0,0v-.34l0,0s0,0,0,0v.34A0,0,0,0,1,96.14,43.51Zm0,.75,0,0V43.9l0,0s0,0,0,0v.34S96.15,44.26,96.14,44.26Zm0,0,0,0V43.9l0,0s0,0,0,0v.34S96.15,44.26,96.14,44.26Zm0,.76,0,0v-.35l0,0,0,0V45A0,0,0,0,1,96.14,45Zm0-.06,0,0v-.29l0,0,0,0v.29A0,0,0,0,1,96.14,45Zm.33-12h0s0,0,0,0l2.17-2.2h0s0,0,0,0l-2.17,2.18,0,0Zm.28,6.19h0v0L98.91,37s0,0,0,0v0Zm.33,4.05s0,0,0,0L99.19,41v0s0,0,0,0,0,0,0,0h0L97.1,43.17ZM97.57,33s0,0,0,0v0l2.12-2.2h0v0l-2.11,2.18Zm.26,6.17s0,0,0,0L100,37h0v0l-2.2,2.14Zm.28,4.05h0v0l2.2-2.12v0s0,0,0,0v0l-2.18,2.14ZM98.66,33l0,0v0l2.12-2.2h0v0l-2.14,2.18Zm.27,6.17h0v0l2.2-2.12s0,0,0,0v0h0L99,39.12Zm.28,4.05h0s0,0,0,0L101.37,41h0v0Zm.45-10.24v0l2.2-2.2h0s0,0,0,0L99.7,32.93l0,0Zm.37,6.19h0v0l2.2-2.12s0,0,0,0v0h0l-2.18,2.14Zm.26,4.05s0,0,0,0L102.47,41h0v0l-2.2,2.14ZM100.78,33a0,0,0,0,1,0,0v0L102.67,31s0,0,0,0v0l-1.91,1.91Zm.35,6.17h0v0l1.56-1.57h0v0Zm.26,4.05h0v0l1.3-1.25,0,0v0l-1.3,1.25ZM101.88,33l0,0v0l.81-.81s0,0,0,0v0l-.83.81Zm.26,6.17h0v0l.55-.47s0,0,0,0v0l-.55.49Zm.35,4.05,0,0v0l.2-.15,0,0s0,0,0,0Zm.2-4a.07.07,0,0,1-.08-.08V37a.07.07,0,0,1,.08-.08c.06,0,.09,0,.09.08V39.1S102.75,39.18,102.69,39.18Zm0,4a.07.07,0,0,1-.08-.08V41c0-.06,0-.08.08-.08s.09,0,.09.08v2.14C102.78,43.2,102.75,43.23,102.69,43.23Zm0-14,0,0v-.29a0,0,0,0,1,0,0l0,0v.29Zm0,.75,0,0v-.29a0,0,0,0,1,0,0l0,0V30Zm0,.75,0,0v-.34s0,0,0,0,0,0,0,0v.34Zm.35,0h-.35l0,0a0,0,0,0,1,0,0H103a0,0,0,0,1,0,0Zm-.35,2.55,0,0v-.35l0,0s0,0,0,0v.35ZM103,33h-.35l0,0,0,0H103l0,0Zm-.37,1.14v-.35a0,0,0,0,1,0,0l0,0v.35l0,0Zm0,2v-.4s0,0,0,0,0,0,0,0v.4l0,0S102.67,36.16,102.67,36.14Zm0,.86,0,0v-.43l0,0,0,0V37Zm.35,0h-.35l0,0,0,0H103l0,0Zm-.35,2.12,0,0s0,0,0,0H103s0,0,0,0l0,0Zm0,.14,0,0V39.1s0,0,0,0,0,0,0,0v.14Zm0,.59v-.14s0,0,0,0l0,0v.14l0,0Zm0,.55v-.14s0,0,0,0l0,0v.14l0,0Zm0,.61v-.2s0,0,0,0l0,0V41l0,0A0,0,0,0,1,102.67,41Zm0,0a0,0,0,0,1,0,0l0,0H103l0,0,0,0Zm.35,2.14h-.35l0,0s0,0,0,0H103s0,0,0,0Zm-.35.34,0,0v-.34s0,0,0,0,0,0,0,0v.34Zm0,.65V43.9s0,0,0,0,0,0,0,0v.26l0,0S102.67,44.18,102.67,44.16Zm0,.8,0,0v-.29l0,0,0,0v.29Zm1.16-14.21h-.34l0,0,0,0h.34s0,0,0,0S103.87,30.75,103.85,30.75Zm0,2.2h-.34l0,0,0,0h.34s0,0,0,0S103.87,33,103.85,33Zm0,4h-.34l0,0,0,0h.34s0,0,0,0S103.87,37,103.85,37Zm0,2.12h-.34s0,0,0,0l0,0h.34s0,0,0,0S103.87,39.12,103.85,39.12Zm0,1.91h-.34s0,0,0,0l0,0h.34l0,0S103.87,41,103.85,41Zm0,2.14h-.34l0,0,0,0h.34s0,0,0,0S103.87,43.17,103.85,43.17Z"/><path d="M103.59,30.75s0,0,0,0a0,0,0,0,1,0,0h.34s0,0,0,0l0,0Zm0,10.06s0,0,0,0l0,0h.34l0,0,0,0Zm0,2.36a0,0,0,0,1,0,0s0,0,0,0h.34s0,0,0,0l0,0Zm0,0a0,0,0,0,1,0,0s0,0,0,0h.34s0,0,0,0l0,0Zm.81-12.42s0,0,0,0l0,0h.35a0,0,0,0,1,0,0l0,0Zm0,10.06s0,0,0,0l0,0h.29l0,0,0,0Zm0,2.36a0,0,0,0,1,0,0l0,0h.35s0,0,0,0l0,0Zm0,0a0,0,0,0,1,0,0l0,0h.35s0,0,0,0l0,0Zm2.55.06h-2.2c-.06,0-.08,0-.08-.08V30.73c0-.05,0-.08.08-.08H107a.07.07,0,0,1,.08.08V43.15A.07.07,0,0,1,107,43.23Zm6.55,0h-8.75c-.06,0-.08,0-.08-.08s0-.09.08-.09h8.75s.08,0,.08.09A.07.07,0,0,1,113.5,43.23Zm-8.75-14,0,0v-.29a0,0,0,0,1,0,0l0,0v.29Zm0,.75,0,0v-.29a0,0,0,0,1,0,0l0,0V30Zm0,.73v-.34s0,0,0,0l0,0v.34l0,0S104.73,30.75,104.73,30.73Zm0,12.78,0,0v-.34s0,0,0,0,0,0,0,0v.34Zm0,.75,0,0V43.9s0,0,0,0,0,0,0,0v.34Zm0,0,0,0V43.9s0,0,0,0,0,0,0,0v.34Zm0,.74v-.35a0,0,0,0,1,0,0l0,0V45l0,0A0,0,0,0,1,104.73,45Zm0,0,0,0v-.29a0,0,0,0,1,0,0l0,0v.29Zm0-2.2s0,0,0,0v0l1.93-1.9a0,0,0,0,1,0,0v0l-1.93,1.9Zm0-1.1h0v0l.83-.81s0,0,0,0,0,0,0,0v0l-.81.83Zm.07,1.4h2V30.81h-2Zm.59-2.25h-.32s0,0,0,0l0,0h.32l0,0S105.44,40.81,105.42,40.81Zm0,2.36s0,0,0,0l1.51-1.51.81-.81s0,0,0,0,0,0,0,0h0l-.81.83-1.51,1.51Zm.7-2.36h-.26s0,0,0,0,0,0,0,0h.26l0,0S106.14,40.81,106.12,40.81Zm.4,2.36s0,0,0,0l.41-.41,1.91-1.91s0,0,0,0,0,0,0,0h0L107,42.74l-.41.43Zm.42-2.36h-.4s0,0,0,0l0,0h.4l0,0S107,40.81,106.94,40.81Zm6.58.06H107a.08.08,0,0,1-.09-.09c0-.05,0-.08.09-.08h6.57a.07.07,0,0,1,.08.08C113.6,40.84,113.57,40.87,113.52,40.87ZM107,30.75s0,0,0,0l0,0h.42s0,0,0,0l0,0Zm.14,12.42H107s0,0,0,0l0,0h.14s0,0,0,0ZM107,29.25l0,0v-.29l0,0,0,0v.29Zm0,.75,0,0v-.29l0,0,0,0V30Zm0,.75s0,0,0,0v-.34l0,0,0,0v.34S107,30.75,107,30.75Zm0,12.76,0,0v-.34l0,0s0,0,0,0v.34Zm0,.75,0,0V43.9l0,0s0,0,0,0v.34S107,44.26,107,44.26Zm0,0,0,0V43.9l0,0s0,0,0,0v.34S107,44.26,107,44.26Zm0,.76s0,0,0,0v-.35l0,0,0,0V45Zm0-.06,0,0v-.29l0,0,0,0v.29A0,0,0,0,1,107,45Zm.73-1.79h-.12s0,0,0,0,0,0,0,0h.12s0,0,0,0Zm-.06,0h0v0l2.34-2.32s0,0,0,0,0,0,0,0v0l-2.32,2.34Zm.14-12.42s0,0,0,0a0,0,0,0,1,0,0h.41a0,0,0,0,1,0,0l0,0Zm.88,12.42s0,0,0,0L111,40.81s0,0,0,0v0l-2.4,2.34Zm1.09,0h0v0l2.41-2.32s0,0,0,0a0,0,0,0,1,0,0h0l-2.38,2.34Zm1.1,0h0v0l2.32-2.32s0,0,0,0v0l-2.32,2.34Zm1.1,0h0v0l1.57-1.52h0v0Zm1.08,0s0,0,0,0l.47-.42h0v0l-.49.41Zm.49.06a.07.07,0,0,1-.08-.08V40.79c0-.06,0-.09.08-.09s.08,0,.08.11v2.34A.07.07,0,0,1,113.5,43.23Zm0-3.22,0,0v-.41a0,0,0,0,1,0,0,0,0,0,0,1,0,0V40Zm0,.8V40.4a0,0,0,0,1,0,0l0,0v.41l0,0A0,0,0,0,1,113.48,40.81Zm0,0s0,0,0,0a0,0,0,0,1,0,0h.35l0,0,0,0Zm0,2.36a0,0,0,0,1,0,0s0,0,0,0h.35s0,0,0,0l0,0Zm0,.34,0,0v-.34s0,0,0,0,0,0,0,0v.34Zm0,.69,0,0V43.9s0,0,0,0,0,0,0,0v.28Zm0,.76,0,0v-.29a0,0,0,0,1,0,0l0,0v.29Zm1.16-4.15h-.35s0,0,0,0l0,0h.35l0,0S114.67,40.81,114.66,40.81Zm0,2.36h-.35a0,0,0,0,1,0,0l0,0h.35s0,0,0,0A0,0,0,0,1,114.66,43.17Z"/><path d="M113.58,37h-.14l0,0s0,0,0,0h.14a0,0,0,0,1,0,0Zm.61,0h-.14l0,0,0,0h.14a0,0,0,0,1,0,0Zm6.19,6.23a6.25,6.25,0,0,1-4.44-1.83,6.49,6.49,0,0,1-1.36-2,6.39,6.39,0,0,1,0-4.81,6.13,6.13,0,0,1,1.36-2,6,6,0,0,1,2-1.38,6.3,6.3,0,0,1,2.4-.47,6.33,6.33,0,0,1,5.8,3.89,6.39,6.39,0,0,1,0,4.81,6.29,6.29,0,0,1-3.41,3.41A6.21,6.21,0,0,1,120.38,43.23Zm-4-6.17h-2.18a.08.08,0,1,1,0-.16h2.18a.08.08,0,0,1,0,.16Zm4-6.25a6,6,0,0,0-2.38.48,6.14,6.14,0,0,0-2,1.31,6.27,6.27,0,0,0-1.3,2,6.14,6.14,0,0,0,0,4.76,6.11,6.11,0,0,0,1.3,2,6,6,0,0,0,4.33,1.79,5.9,5.9,0,0,0,2.37-.47,6.07,6.07,0,0,0,1.94-1.32,6,6,0,0,0,1.32-2,6.14,6.14,0,0,0-3.26-8A5.91,5.91,0,0,0,120.38,30.81Zm0,10.22a4,4,0,0,1-1.62-.33,4.12,4.12,0,0,1-2.21-2.16,4.16,4.16,0,0,1,0-3.2,4.13,4.13,0,0,1,.89-1.29,4.2,4.2,0,0,1,4.55-.88,4.42,4.42,0,0,1,1.32.88,4,4,0,0,1,.89,1.29,4,4,0,0,1,0,3.2,4,4,0,0,1-.89,1.29,4.39,4.39,0,0,1-1.32.87A4,4,0,0,1,120.38,41Zm-3.87-4h-.14l0,0,0,0h.14l0,0A0,0,0,0,1,116.51,37Zm3.87-4a3.85,3.85,0,0,0-1.56.32,4.21,4.21,0,0,0-1.26.84,4,4,0,0,0-.86,1.24,3.77,3.77,0,0,0-.31,1.53,3.69,3.69,0,0,0,.31,1.52,4.09,4.09,0,0,0,.86,1.26,3.87,3.87,0,0,0,1.26.84,4,4,0,0,0,3.1,0,3.85,3.85,0,0,0,1.28-.84,4.06,4.06,0,0,0,.85-1.26,3.7,3.7,0,0,0,.32-1.52,3.78,3.78,0,0,0-.32-1.53,4,4,0,0,0-.85-1.24,4.18,4.18,0,0,0-1.28-.84A3.83,3.83,0,0,0,120.38,33Zm-3.32,4h-.14l0,0,0,0h.14l0,0Zm3.36-4c-.06,0-.08,0-.08-.08v-2.2c0-.05,0-.08.08-.08a.07.07,0,0,1,.08.08v2.2A.07.07,0,0,1,120.42,33Zm0,10.22c-.06,0-.08,0-.08-.08V41c0-.05,0-.08.08-.08a.07.07,0,0,1,.08.08v2.12A.07.07,0,0,1,120.42,43.23Zm0-.74,0,0h0l2-2h0v0l-2,2Zm0-1.09a0,0,0,0,1,0,0s0,0,0,0h0l.41-.4s0,0,0,0,0,0,0,0h0l-.41.41Zm0-9.75h0s0,0,0,0l.81-.82h0v0Zm0,1.1h0s0,0,0,0l1.71-1.77s0,0,0,0,0,0,0,0h0Zm0-3.52V29a0,0,0,0,1,0,0,0,0,0,0,1,0,0v.27l0,0A0,0,0,0,1,120.4,29.23Zm0,.75v-.27a0,0,0,0,1,0,0,0,0,0,0,1,0,0V30l0,0A0,0,0,0,1,120.4,30Zm0,.75v-.34s0,0,0,0l0,0v.34l0,0S120.4,30.75,120.4,30.73Zm0,2.4v-.2a0,0,0,0,1,0,0l0,0v.2l0,0S120.4,33.15,120.4,33.13Zm0,.72,0,0v-.29a0,0,0,0,1,0,0l0,0v.29Zm0,6.49v-.21a0,0,0,0,1,0,0,0,0,0,0,1,0,0v.21l0,0A0,0,0,0,1,120.4,40.34Zm0,.71,0,0v-.29a0,0,0,0,1,0,0l0,0V41Zm0,2.44v-.34s0,0,0,0l0,0v.34l0,0A0,0,0,0,1,120.4,43.49Zm0,.75V43.9s0,0,0,0l0,0v.34l0,0S120.4,44.26,120.4,44.24Zm0,.76v-.35a0,0,0,0,1,0,0l0,0V45l0,0A0,0,0,0,1,120.4,45Zm.34-1.83h0l5.8-5.85h0v0l-5.83,5.84ZM121.15,33h0l1.71-1.73h0s0,0,0,0L121.17,33Zm.84.29h0v0l1.64-1.65h0s0,0,0,0L122,33.3Zm.14,9.66h0s0,0,0,0l4.23-4.25h0v0Zm.53-9.32v0h0l1.56-1.5h0l-1.56,1.52Zm.63.55s0,0,0,0v0l1.5-1.57v0s0,0,0,0,0,0,0,0h0l-1.5,1.57Zm.55,2.81h-.14l0,0s0,0,0,0h.14l0,0Zm-.1-2.28v0l1.58-1.51h0s0,0,0,0h0l-1.56,1.51,0,0ZM123.9,39s0,0,0,0v0l2.66-2.66a.06.06,0,0,1,0,0v0L123.92,39Zm.2-3.5s0,0,0,0v0l1.65-1.65h0a0,0,0,0,1,0,.05l-1.63,1.62Zm.35,1.51h-.14l0,0s0,0,0,0h.14l0,0Zm-.08-.69s0,0,0,0h0l1.71-1.73h0v0l-1.71,1.71Zm0,1.1s0,0,0,0l2-2s0,0,0,0v0l-2,2Zm2.19-.35h-2.11c-.06,0-.08,0-.08-.08s0-.08.08-.08h2.11c.06,0,.09,0,.09.08S126.62,37.06,126.56,37.06Zm.21-.06h-.21l0,0a0,0,0,0,1,0,0h.21l0,0A0,0,0,0,1,126.77,37Zm.55,0h-.14l0,0,0,0h.14l0,0Z"/><path d="M127.85,30.75s0,0,0,0,0,0,0,0h.2l0,0,0,0Zm.53,2.14h-.53s0,0,0,0,0,0,0,0h.53l0,0A0,0,0,0,1,128.38,32.89Zm0,4.6h-.53l0,0s0,0,0,0h.53s0,0,0,0Zm0,2.11h-.53s0,0,0,0,0,0,0,0h.53l0,0S128.39,39.6,128.38,39.6Zm-.53,3.57s0,0,0,0,0,0,0,0h.2l0,0,0,0Zm.61-12.42s0,0,0,0,0,0,0,0h.14l0,0,0,0Zm0,12.42s0,0,0,0,0,0,0,0h.14l0,0,0,0Zm2.34.06h-2.2a.07.07,0,0,1-.08-.08V30.73a.07.07,0,0,1,.08-.08h2.2a.07.07,0,0,1,.08.08V43.15A.07.07,0,0,1,130.8,43.23Zm-2.22-14V29a0,0,0,0,1,0,0,0,0,0,0,1,0,0v.27l0,0Zm0,.75v-.27a0,0,0,0,1,0,0,0,0,0,0,1,0,0V30l0,0Zm0,.75v-.34s0,0,0,0l0,0v.34l0,0S128.58,30.75,128.58,30.73Zm0,12.76v-.34s0,0,0,0l0,0v.34l0,0Zm0,.75V43.9s0,0,0,0l0,0v.34l0,0S128.58,44.26,128.58,44.24Zm0,.76v-.35l0,0,0,0V45l0,0Zm.1-1.94h2V30.81h-2Zm.39-10.17h-.26s0,0,0,0,0,0,0,0h.26l0,0A0,0,0,0,1,129.07,32.89Zm0,4.6h-.26l0,0s0,0,0,0h.26s0,0,0,0A0,0,0,0,1,129.07,37.49Zm0,2.11h-.26s0,0,0,0,0,0,0,0h.26a0,0,0,0,1,0,0S129.08,39.6,129.07,39.6Zm.76-6.71h-.26s0,0,0,0,0,0,0,0h.26l0,0A0,0,0,0,1,129.83,32.89Zm0,4.6h-.26l0,0s0,0,0,0h.26s0,0,0,0Zm0,2.11h-.26s0,0,0,0,0,0,0,0h.26l0,0S129.84,39.6,129.83,39.6Zm1-6.71h-.55a0,0,0,0,1,0,0l0,0h.55l0,0S130.81,32.89,130.79,32.89Zm0,4.6h-.55l0,0,0,0h.55s0,0,0,0S130.81,37.49,130.79,37.49Zm0,2.11h-.55s0,0,0,0l0,0h.55s0,0,0,0S130.81,39.6,130.79,39.6ZM134.56,33h-3.78c-.06,0-.08,0-.08-.08s0-.08.1-.08h3.76c.06,0,.08,0,.08.08S134.62,33,134.56,33Zm0,4.6h-3.78c-.06,0-.08,0-.08-.08s0-.08.1-.08h3.76c.06,0,.08,0,.08.08S134.62,37.55,134.56,37.55Zm0,2.12h-3.78c-.06,0-.08,0-.08-.09s0-.08.1-.08h3.76c.06,0,.08,0,.08.08S134.62,39.67,134.56,39.67Zm0-8.86H130.8c-.06,0-.08,0-.08-.08s0-.08.08-.08h3.76c.06,0,.08,0,.08.08S134.62,30.81,134.56,30.81Zm-3.77-1.56s0,0,0,0l0-.27s0,0,0,0,0,0,0,0l0,.27Zm0,.75s0,0,0,0l0-.27s0,0,0,0,0,0,0,0l0,.27Zm0,.75s0,0,0,0l0-.34s0,0,0,0l0,0,0,.34S130.79,30.75,130.79,30.75Zm0,12.76s0,0,0,0l0-.34s0,0,0,0l0,0,0,.34Zm0,.75s0,0,0,0l0-.34s0,0,0,0l0,0,0,.34S130.79,44.26,130.79,44.26Zm0,.76s0,0,0,0l0-.35s0,0,0,0l0,0,0,.35Zm0-13.64,0,0v0l.63-.61s0,0,0,0,0,0,0,0v0l-.61.61Zm0,1.1,0,0v0l1.71-1.71s0,0,0,0v0l-1.71,1.71Zm0,10.69s0,0,0,0,0,0,0,0h.14l0,0,0,0Zm0-5.3v0l.4-.4s0,0,0,0v0l-.41.4,0,0Zm0,1.1v0l1.5-1.5s0,0,0,0v0l-1.5,1.5,0,0Zm.42.63h0v0l2.2-2.11s0,0,0,0,0,0,0,0h0l-2.17,2.13Zm.15,3.57s0,0,0,0,0,0,0,0h.14l0,0,0,0ZM131.41,33a0,0,0,0,1,0,0l2.11-2.18a0,0,0,0,1,0,0,0,0,0,0,1,0,0h0s0,0,0,0L131.43,33Zm.89,6.65h0v0l2.2-2.11s0,0,0,0,0,0,0,0h0l-2.18,2.13Zm.21-6.65h0v0l2-2.06h0v0L132.53,33Zm.89,6.65h0v0l1.16-1.1,4.3-4.31h0s0,0,0,0l-4.28,4.34Zm.12-6.65a0,0,0,0,1,0,0l1-1,1-1h0v0l-1,1-1,1Zm1,6.72c-.05,0-.08,0-.08-.09s0-.08.1-.08a4.1,4.1,0,0,0,1.68-.34,4.52,4.52,0,0,0,1.37-.94,4.35,4.35,0,0,0,.94-1.37,4.14,4.14,0,0,0,.35-1.68,4.19,4.19,0,0,0-.35-1.69,4.28,4.28,0,0,0-.94-1.38,4.35,4.35,0,0,0-1.37-.94,4.11,4.11,0,0,0-1.68-.35c-.07,0-.1,0-.1-.08s0-.08.1-.08A4.31,4.31,0,0,1,137.68,32a4.76,4.76,0,0,1,1,1.47,4.55,4.55,0,0,1,.33,1.73,4.28,4.28,0,0,1-.36,1.75,4.51,4.51,0,0,1-1,1.42,4.7,4.7,0,0,1-1.43,1A4.25,4.25,0,0,1,134.5,39.67Zm0-2.12a.07.07,0,0,1-.08-.08c0-.06,0-.08.1-.08a2.06,2.06,0,0,0,.85-.18,2.1,2.1,0,0,0,.7-.47,2.28,2.28,0,0,0,.48-.71,2.2,2.2,0,0,0,.17-.86,2.27,2.27,0,0,0-.17-.86,2.26,2.26,0,0,0-1.19-1.19,2.31,2.31,0,0,0-.86-.17.07.07,0,0,1-.08-.08c0-.06,0-.08.1-.08a2.41,2.41,0,0,1,.93.18,2.17,2.17,0,0,1,.75.51,2.67,2.67,0,0,1,.51.76,2.35,2.35,0,0,1,0,1.85,2.42,2.42,0,0,1-.51.76,2.67,2.67,0,0,1-.76.51A2.5,2.5,0,0,1,134.5,37.55Zm0,2.05s0,0,0,0l.06-.06h0v0l-.08.08Zm.09-6.65c-.06,0-.09,0-.09-.08V30.73c0-.05,0-.08.09-.08s.09,0,.09.08v2.14C134.64,32.92,134.61,33,134.55,33Zm0,6.72a.08.08,0,0,1-.09-.09V37.47c0-.06,0-.08.09-.08s.09,0,.09.08v2.11A.08.08,0,0,1,134.55,39.67Zm0-10.44,0-.27s0,0,0,0,0,0,0,0l0,.27v0Zm0,.75,0-.27s0,0,0,0,0,0,0,0l0,.27v0Zm0,.75,0-.34s0,0,0,0l0,0,0,.34v0S134.54,30.75,134.54,30.73Zm0,2.36v0l0-.14s0,0,0,0l0,0,0,.14Zm0,.55v0l0-.14s0,0,0,0,0,0,0,0l0,.14Zm0,3.2,0-.15s0,0,0,0l0,0,0,.15v0Zm0,.65v0l0-.14a0,0,0,1,1,.06,0l0,.14Zm0,2.46v0l0-.35s0,0,0,0,0,0,0,0l0,.35Zm0,.75v0l0-.34s0,0,0,0l0,0,0,.34Zm0,.74,0-.35s0,0,0,0l0,0,0,.35v0A0,0,0,0,1,134.54,41.44Zm0-10.55v0l.06-.14,0,0v0l-.06.12,0,0Zm0-.14s0,0,0,0a0,0,0,0,1,0,0h.15l0,0,0,0Zm0,2.2,0,0,0,0h.15l0,0,0,0Zm0,6.59s0,0,0,0v0L139,35.11h0v0l-4.44,4.37Zm0,.06s0,0,0,0l0,0h.15l0,0,0,0Zm.06-6.65h0v0l1.79-1.77a0,0,0,0,1,0,0s0,0,0,0h0s0,0,0,0L134.64,33Zm.59-2.2h-.12s0,0,0,0a0,0,0,0,1,0,0h.12l0,0S135.23,30.75,135.21,30.75Zm0,2.2h-.12l0,0,0,0h.12l0,0S135.23,33,135.21,33Zm0,6.65h-.12s0,0,0,0l0,0h.12s0,0,0,0S135.23,39.6,135.21,39.6Zm.29-6.45h0v0l1.57-1.56h0v0l-1.57,1.58Zm.22,6.31h0v0l3.06-3.09h0v0l-3.06,3.09Zm.45-4.25h-.12s0,0,0,0,0,0,0,0h.12l0,0A0,0,0,0,1,136.17,35.21Zm0-1.65h0v0L137.68,32s0,0,0,0v0l-1.55,1.51Zm.49.69h0s0,0,0,0l1.55-1.57h0v0Zm.06,1a0,0,0,0,1,0,0,0,0,0,0,1,0,0h.14l0,0,0,0Zm2.24.06H136.8a.07.07,0,0,1-.08-.08c0-.06,0-.08.1-.08h2.1c.05,0,.08,0,.08.08A.07.07,0,0,1,138.92,35.27Zm-2.1-.12h0v0l1.75-1.77s0,0,0,0v0Zm2.16.06a0,0,0,0,1,0,0l0,0h.14l0,0,0,0Zm.55,0s0,0,0,0,0,0,0,0h.14l0,0,0,0Z"/><path d="M140.75,30.75h-.35l0,0a0,0,0,0,1,0,0h.35a0,0,0,0,1,0,0Zm0,12.42h-.35l0,0s0,0,0,0h.35s0,0,0,0Zm0,0h-.35l0,0s0,0,0,0h.35s0,0,0,0Zm.75-12.42h-.28l0,0,0,0h.28s0,0,0,0Zm.06,12.42h-.34l0,0,0,0h.34s0,0,0,0Zm0,0h-.34l0,0,0,0h.34s0,0,0,0Zm2.2.06h-2.2a.07.07,0,0,1-.08-.08V30.73a.07.07,0,0,1,.08-.08h2.2c.06,0,.08,0,.08.08V43.15C143.84,43.2,143.82,43.23,143.76,43.23Zm-2.2-14,0,0v-.29a0,0,0,0,1,0,0l0,0v.29Zm0,.75,0,0v-.29a0,0,0,0,1,0,0l0,0V30Zm0,.75,0,0v-.34s0,0,0,0,0,0,0,0v.34Zm0,12.76,0,0v-.34s0,0,0,0,0,0,0,0v.34Zm0,.75,0,0V43.9s0,0,0,0,0,0,0,0v.34Zm0,0,0,0V43.9s0,0,0,0,0,0,0,0v.34Zm0,.76,0,0v-.35l0,0,0,0V45Zm0-.06,0,0v-.29l0,0,0,0v.29Zm.08-1.9h2V30.81h-2Zm.6-12.31h-.33l0,0a0,0,0,0,1,0,0h.33a0,0,0,0,1,0,0S142.25,30.75,142.24,30.75Zm.7,2.2h-.35l0,0,0,0h.35l0,0Zm0,4h-.35l0,0,0,0h.35l0,0A0,0,0,0,1,142.94,37Zm0,2.12h-.35l0,0,0,0h.35s0,0,0,0Zm0,1.91h-.35a0,0,0,0,1,0,0l0,0h.35l0,0A0,0,0,0,1,142.94,41Zm0-10.28h-.27l0,0a0,0,0,0,1,0,0h.27a0,0,0,0,1,0,0S143,30.75,142.94,30.75Zm.82,0h-.33l0,0a0,0,0,0,1,0,0h.33a0,0,0,0,1,0,0S143.77,30.75,143.76,30.75Zm0,2.2h-.33l0,0a0,0,0,0,1,0,0h.33a0,0,0,0,1,0,0A0,0,0,0,1,143.76,32.91Zm0,4h-.33l0,0a0,0,0,0,1,0,0h.33a0,0,0,0,1,0,0A0,0,0,0,1,143.76,37Zm0,2.12h-.33a0,0,0,0,1,0,0s0,0,0,0h.33s0,0,0,0A0,0,0,0,1,143.76,39.12Zm0,1.91h-.33a0,0,0,0,1,0,0,0,0,0,0,1,0,0h.33l0,0A0,0,0,0,1,143.76,41Zm6.57-8h-6.57a.08.08,0,0,1,0-.16h6.49V30.73a.07.07,0,0,1,.08-.08c.06,0,.09,0,.09.08v2.2S150.39,33,150.33,33Zm0-2.2h-6.57s-.08,0-.08-.08a.07.07,0,0,1,.08-.08h6.57c.06,0,.09,0,.09.08S150.39,30.81,150.33,30.81Zm0,6.25h-6.57a.08.08,0,1,1,0-.16h6.57c.06,0,.09,0,.09.08S150.39,37.06,150.33,37.06Zm0,2.12h-6.57a.07.07,0,0,1-.08-.08c0-.06,0-.09.08-.09h6.57a.08.08,0,0,1,.09.09S150.39,39.18,150.33,39.18Zm0,1.91h-6.57a.07.07,0,0,1-.08-.08c0-.06,0-.08.08-.08h6.57c.06,0,.09,0,.09.08S150.39,41.09,150.33,41.09Zm0,2.14h-6.57a.07.07,0,0,1-.08-.08c0-.06,0-.09.08-.09h6.57a.08.08,0,0,1,.09.09C150.42,43.2,150.39,43.23,150.33,43.23Zm-6.59-1.31s0,0,0,0l1-.87s0,0,0,0v0s0,0,0,0h0l-1,.89Zm0-9.8h0l1.43-1.39h0v0l-1.45,1.37Zm0-1.1h0s0,0,0,0l.35-.29h0v0l-.35.27Zm0,7.61h0L145.45,37s0,0,0,0,0,0,0,0h0l-1.71,1.65Zm0-1.08v0h0s0,0,0,0l.61-.55h0l-.61.55Zm0,5.62,0,0,0,0h0v0Zm0-.15s0,0,0,0l2-2h0v0l-2,2Zm0-13.77,0,0v-.29l0,0,0,0v.29A0,0,0,0,1,143.76,29.25Zm0,.75,0,0v-.29l0,0,0,0V30A0,0,0,0,1,143.76,30Zm0,.75,0,0v-.34l0,0s0,0,0,0v.34S143.77,30.75,143.76,30.75Zm0,12.76,0,0v-.34l0,0s0,0,0,0v.34A0,0,0,0,1,143.76,43.51Zm0,.75,0,0V43.9l0,0s0,0,0,0v.34S143.77,44.26,143.76,44.26Zm0,0,0,0V43.9l0,0s0,0,0,0v.34S143.77,44.26,143.76,44.26Zm0,.76,0,0v-.35l0,0,0,0V45A0,0,0,0,1,143.76,45Zm0-.06,0,0v-.29l0,0,0,0v.29A0,0,0,0,1,143.76,45Zm.33-12h0s0,0,0,0l2.17-2.2h0s0,0,0,0l-2.17,2.18,0,0Zm.28,6.19h0v0L146.53,37s0,0,0,0v0Zm.33,4.05s0,0,0,0L146.81,41v0s0,0,0,0,0,0,0,0h0l-2.11,2.14ZM145.19,33s0,0,0,0v0l2.11-2.2h0v0l-2.11,2.18Zm.26,6.17s0,0,0,0L147.63,37h0v0l-2.2,2.14Zm.29,4.05h0v0l2.2-2.12v0s0,0,0,0v0l-2.17,2.14ZM146.28,33l0,0v0l2.12-2.2h0v0l-2.14,2.18Zm.27,6.17h0v0l2.2-2.12s0,0,0,0v0h0l-2.18,2.14Zm.28,4.05h0s0,0,0,0L149,41h0v0Zm.45-10.24v0l2.2-2.2h0s0,0,0,0l-2.18,2.18,0,0Zm.37,6.19h0v0l2.2-2.12s0,0,0,0v0h0l-2.18,2.14Zm.26,4.05s0,0,0,0L150.09,41h0v0l-2.2,2.14ZM148.4,33a0,0,0,0,1,0,0v0L150.29,31s0,0,0,0v0l-1.91,1.91Zm.35,6.17h0v0l1.56-1.57h0v0Zm.26,4.05h0v0l1.3-1.25,0,0v0L149,43.17ZM149.5,33l0,0v0l.81-.81s0,0,0,0v0l-.83.81Zm.26,6.17h0v0l.55-.47s0,0,0,0v0l-.54.49Zm.35,4.05a0,0,0,0,1,0,0v0l.2-.15,0,0s0,0,0,0Zm.2-4a.07.07,0,0,1-.08-.08V37a.07.07,0,0,1,.08-.08c.06,0,.09,0,.09.08V39.1S150.37,39.18,150.31,39.18Zm0,4a.07.07,0,0,1-.08-.08V41c0-.06,0-.08.08-.08s.09,0,.09.08v2.14C150.4,43.2,150.37,43.23,150.31,43.23Zm0-14,0,0v-.29a0,0,0,0,1,0,0l0,0v.29Zm0,.75,0,0v-.29a0,0,0,0,1,0,0l0,0V30Zm0,.75,0,0v-.34s0,0,0,0,0,0,0,0v.34Zm.35,0h-.35l0,0a0,0,0,0,1,0,0h.35a0,0,0,0,1,0,0Zm-.35,2.55,0,0v-.35l0,0s0,0,0,0v.35Zm.35-.35h-.35l0,0,0,0h.35l0,0Zm-.37,1.14v-.35a0,0,0,0,1,0,0l0,0v.35l0,0Zm0,2v-.4s0,0,0,0,0,0,0,0v.4l0,0S150.29,36.16,150.29,36.14Zm0,.86,0,0v-.43l0,0,0,0V37Zm.35,0h-.35l0,0,0,0h.35l0,0Zm-.35,2.12,0,0s0,0,0,0h.35s0,0,0,0l0,0Zm0,.14,0,0V39.1s0,0,0,0,0,0,0,0v.14Zm0,.59v-.14s0,0,0,0l0,0v.14l0,0Zm0,.55v-.14s0,0,0,0l0,0v.14l0,0Zm0,.61v-.2s0,0,0,0l0,0V41l0,0A0,0,0,0,1,150.29,41Zm0,0a0,0,0,0,1,0,0l0,0h.35l0,0,0,0Zm.35,2.14h-.35l0,0s0,0,0,0h.35s0,0,0,0Zm-.35.34,0,0v-.34s0,0,0,0,0,0,0,0v.34Zm0,.65V43.9s0,0,0,0,0,0,0,0v.26l0,0S150.29,44.18,150.29,44.16Zm0,.8,0,0v-.29l0,0,0,0v.29Zm1.16-14.21h-.34l0,0,0,0h.34s0,0,0,0S151.49,30.75,151.47,30.75Zm0,2.2h-.34l0,0,0,0h.34s0,0,0,0S151.49,33,151.47,33Zm0,4h-.34l0,0,0,0h.34s0,0,0,0S151.49,37,151.47,37Zm0,2.12h-.34s0,0,0,0l0,0h.34s0,0,0,0S151.49,39.12,151.47,39.12Zm0,1.91h-.34s0,0,0,0l0,0h.34l0,0S151.49,41,151.47,41Zm0,2.14h-.34l0,0,0,0h.34s0,0,0,0S151.49,43.17,151.47,43.17Z"/><path d="M152.29,30.75h-.21s0,0,0,0l0,0h.21l0,0S152.3,30.75,152.29,30.75Zm.34,2.16h-.55a0,0,0,0,1,0,0l0,0h.55l0,0S152.65,32.91,152.63,32.91Zm0,4.58h-.55l0,0,0,0h.55s0,0,0,0S152.65,37.49,152.63,37.49Zm0,2.11h-.55s0,0,0,0l0,0h.55s0,0,0,0S152.65,39.6,152.63,39.6Zm-.34,3.57h-.21a0,0,0,0,1,0,0l0,0h.21l0,0A0,0,0,0,1,152.29,43.17Zm.55-12.42h-.14s0,0,0,0l0,0h.14l0,0S152.85,30.75,152.84,30.75Zm0,12.42h-.14s0,0,0,0l0,0h.14l0,0Zm2.2.06h-2.2c-.06,0-.08,0-.08-.08V30.73c0-.05,0-.08.08-.08H155a.07.07,0,0,1,.08.08V43.15A.07.07,0,0,1,155,43.23Zm3.74-12.42h-5.94c-.06,0-.08,0-.08-.08s0-.08.08-.08h5.94a.07.07,0,0,1,.08.08C158.86,30.79,158.83,30.81,158.78,30.81Zm-5.94-1.56s0,0,0,0V29s0,0,0,0a0,0,0,0,1,0,0v.27Zm0,.75s0,0,0,0v-.27s0,0,0,0a0,0,0,0,1,0,0V30Zm0,.75s0,0,0,0v-.34s0,0,0,0l0,0v.34S152.85,30.75,152.84,30.75Zm0,12.76s0,0,0,0v-.34s0,0,0,0l0,0v.34Zm0,.75s0,0,0,0V43.9s0,0,0,0l0,0v.34S152.85,44.26,152.84,44.26Zm0,.76s0,0,0,0v-.35s0,0,0,0l0,0V45Zm.08-2h2V30.81h-2ZM153,32.91l0,0,0,0h.29l0,0,0,0Zm.29,4.58H153l0,0,0,0h.29s0,0,0,0ZM153,39.6s0,0,0,0l0,0h.29l0,0,0,0Zm1-6.69h-.27l0,0,0,0h.27l0,0Zm0,4.58h-.27l0,0,0,0h.27s0,0,0,0Zm0,2.11h-.27s0,0,0,0l0,0h.27l0,0S154.07,39.6,154.06,39.6Zm.43-6.69s0,0,0,0,0,0,0,0H155l0,0,0,0Zm.55,4.58h-.55l0,0s0,0,0,0H155s0,0,0,0Zm-.55,2.11s0,0,0,0,0,0,0,0H155a0,0,0,0,1,0,0l0,0ZM158.78,33H155c-.06,0-.09,0-.09-.08s0-.08.09-.08h3.74c.05,0,.08,0,.08.08A.07.07,0,0,1,158.78,33Zm0,4.58H155c-.06,0-.09,0-.09-.08s0-.08.09-.08h3.74c.05,0,.08,0,.08.08A.07.07,0,0,1,158.78,37.55Zm0,2.12H155a.08.08,0,0,1-.09-.09s0-.08.09-.08h3.74a.07.07,0,0,1,.08.08C158.86,39.64,158.83,39.67,158.78,39.67ZM155,29.23V29s0,0,0,0a0,0,0,0,1,0,0v.27l0,0S155,29.24,155,29.23Zm0,.75v-.27s0,0,0,0a0,0,0,0,1,0,0V30l0,0S155,30,155,30Zm0,.75v-.34s0,0,0,0l0,0v.34l0,0S155,30.75,155,30.73Zm0,12.76v-.34s0,0,0,0l0,0v.34l0,0S155,43.5,155,43.49Zm.14-.32H155s0,0,0,0,0,0,0,0h.12l0,0ZM155,44.24V43.9s0,0,0,0l0,0v.34l0,0S155,44.26,155,44.24Zm0,.76v-.35s0,0,0,0l0,0V45l0,0S155,45,155,45Zm.69-1.83h-.15l0,0,0,0h.15l0,0A0,0,0,0,1,155.71,43.17Zm2.46-4.93,0,0-.14-.41s0,0,0,0l0,0,.14.41A.08.08,0,0,1,158.17,38.24Zm.26.59-.14-.26v0h0l.12.26v0A0,0,0,0,1,158.43,38.83Zm.35.77h0l-.2-.34a0,0,0,0,1,0,0,0,0,0,0,1,0,0l.2.32v0Zm2.1-.48a.13.13,0,0,1-.09,0s0-.08.05-.11a4.31,4.31,0,0,0,1.13-.9,4.76,4.76,0,0,0,.76-1.18,4.18,4.18,0,0,0,.34-1.37,4.31,4.31,0,0,0-.12-1.43,4.29,4.29,0,0,0-1.53-2.36,4.43,4.43,0,0,0-1.25-.67,4,4,0,0,0-1.41-.25s-.08,0-.08-.08a.07.07,0,0,1,.08-.08,4.55,4.55,0,0,1,1.48.25,4.66,4.66,0,0,1,1.27.71,4.36,4.36,0,0,1,1,1.07,4.12,4.12,0,0,1,.6,1.37,4.46,4.46,0,0,1,.13,1.49,4.55,4.55,0,0,1-.35,1.42,4.42,4.42,0,0,1-.78,1.23,4.8,4.8,0,0,1-1.17.93Zm-2.12-1.57a.07.07,0,0,1-.08-.08c0-.06,0-.08.08-.08a2,2,0,0,0,.84-.18A2.14,2.14,0,0,0,160.78,36a2,2,0,0,0,.18-.86,2.11,2.11,0,0,0-.18-.86,2.15,2.15,0,0,0-.47-.71,2.47,2.47,0,0,0-.71-.48,2.14,2.14,0,0,0-.84-.17.07.07,0,0,1-.08-.08c0-.06,0-.08.08-.08a2.3,2.3,0,0,1,1.67.69,2.31,2.31,0,0,1,.51.76,2.47,2.47,0,0,1,0,1.85,2.12,2.12,0,0,1-.51.76,2.76,2.76,0,0,1-.75.51A2.37,2.37,0,0,1,158.76,37.55Zm0-4.58a.07.07,0,0,1-.08-.08V30.73a.08.08,0,1,1,.16,0v2.16A.07.07,0,0,1,158.78,33Zm0,6.7c-.05,0-.08,0-.08-.09V37.47c0-.06,0-.08.08-.08s.08,0,.08.08v2.11C158.86,39.64,158.83,39.67,158.78,39.67Zm1.51,3.56s-.06,0-.06,0l-1.51-3.57s0-.09,0-.12.07,0,.1,0l1.51,3.59s0,.07,0,.1Zm-1.51-14,0,0V29l0,0a0,0,0,0,1,0,0v.27Zm0,.75,0,0v-.27l0,0a0,0,0,0,1,0,0V30Zm0,.75s0,0,0,0v-.34l0,0,0,0v.34S158.79,30.75,158.78,30.75Zm0,.21,0,0,.14-.21s0,0,0,0v0l-.14.21Zm.14-.21h-.14s0,0,0,0l0,0h.14l0,0S158.94,30.75,158.92,30.75Zm-.14,1.3h0l1.08-1.18h0v0l-1.1,1.16Zm.14.9h-.14l0,0,0,0h.14l0,0S158.94,33,158.92,33Zm-.14.14,0,0v-.14l0,0,0,0v.14S158.79,33.09,158.78,33.09Zm0,.55,0,0v-.14l0,0,0,0v.14S158.79,33.64,158.78,33.64Zm0,4.93h0s0,0,0,0l4.29-4.4h0v0l-4.31,4.4Zm0-1.71,0,0v-.15l0,0,0,0v.15Zm0,.63,0,0v-.14l0,0s0,0,0,0v.14Zm0,0v0h0s0,0,0,0,0,0,0,0,0,0,0,0v0Zm0,2.46,0,0v-.35l0,0,0,0v.35Zm.14-.35h-.14s0,0,0,0l0,0h.14s0,0,0,0S158.94,39.6,158.92,39.6Zm-.14,1.1,0,0v-.34l0,0,0,0v.34S158.79,40.7,158.78,40.7Zm0,.76a0,0,0,0,1,0,0v-.35l0,0,0,0v.35A0,0,0,0,1,158.78,41.46Zm0-1.86s0,0,0,0l4.44-4.37s0,0,0,0v0s0,0,0,0h0L158.8,39.6Zm.14-6.65h0v0l1.79-1.77a0,0,0,0,1,0,0s0,0,0,0v0L158.94,33Zm.14,7.47h0v0l4-4h0a0,0,0,0,1,0,0Zm.27-9.67s0,0,0,0l0,0h.14l0,0,0,0Zm0,2.2a0,0,0,0,1,0,0l0,0h.14l0,0,0,0Zm0,6.65s0,0,0,0l0,0h.14s0,0,0,0l0,0Zm.08,1.59,0,0s0,0,0,0h0L161,39.5h0v0l-1.65,1.65Zm.27,2h-.15l0,0,0,0h.15l0,0A0,0,0,0,1,159.68,43.17Zm.06-1.23v0s0,0,0,0h0l1.62-1.64h0v0l-1.65,1.64S159.75,41.94,159.74,41.94Zm.08-8.79h0v0l1.56-1.56h0v0Zm.2,9.55a0,0,0,0,1,0,0v0L161.71,41h0s0,0,0,0L160,42.68Zm.27.47h-.21a0,0,0,0,1,0,0l0,0h.21l0,0A0,0,0,0,1,160.29,43.17Zm2.32.06h-2.32c-.06,0-.09,0-.09-.08a.08.08,0,0,1,.09-.09h2.32s.08,0,.08.09A.07.07,0,0,1,162.61,43.23Zm-2.32-8s0,0,0,0l0,0h.14l0,0,0,0Zm.14,8.36h0l-.14-.4s0,0,0,0,0,0,0,0l.14.4S160.44,43.57,160.43,43.57Zm0-9.93s0,0,0,0v0l1.5-1.5h0v0l-1.5,1.5Zm.2,4.8,0,0-.14-.26a.08.08,0,0,1,0,0l0,0,.14.26S160.65,38.43,160.63,38.44Zm.06,5.76,0,0-.12-.26v0a0,0,0,0,1,0,0l.12.26v0Zm-.06-1h0v0L162,41.76h0v0l-1.37,1.37Zm.27-4.05-.15-.29v0a.05.05,0,0,1,0,0l.13.27v0Zm-.06-4.79a0,0,0,0,0,0,0v0l1.58-1.65h0v0l-1.56,1.64ZM161,45h0l-.2-.43s0,0,0,0a0,0,0,0,1,0,0l.2.41v0Zm1.57-1.79s-.06,0-.06,0l-1.71-4s0-.08,0-.11.07,0,.1,0l1.71,4.05s0,.07,0,.1Zm-1.57-8h-.14s0,0,0,0l0,0H161l0,0A0,0,0,0,1,161,35.21Zm2.12.06H161c-.06,0-.08,0-.08-.08s0-.08.08-.08h2.12c.05,0,.08,0,.08.08A.07.07,0,0,1,163.16,35.27ZM161,35.21h0v0l1.79-1.85s0,0,0,0,0,0,0,0h0l-1.77,1.85Zm.69,8h0v0l.61-.64h0v.05Zm1,.4h0l-.14-.4,0,0s0,0,0,0l.14.4S162.76,43.57,162.75,43.57Zm0-.4h-.14s0,0,0,0l0,0h.14l0,0Zm.28,1s0,0,0,0l-.08-.26s0,0,0,0l0,0,.08.28Zm.33-9h-.12s0,0,0,0,0,0,0,0h.12l0,0A0,0,0,0,1,163.36,35.21Zm0,8h-.12s0,0,0,0,0,0,0,0h.12l0,0A0,0,0,0,1,163.36,43.17Zm0,1.85h0l-.12-.43v0l0,0,.12.41v0Zm.55-9.81h-.12s0,0,0,0,0,0,0,0h.12l0,0A0,0,0,0,1,163.91,35.21Z"/><path d="M164.19,34.33h-.14l0,0,0,0h.14s0,0,0,0S164.21,34.33,164.19,34.33Zm0,5.27h-.14s0,0,0,0l0,0h.14s0,0,0,0S164.21,39.6,164.19,39.6Zm.55-5.27h-.14l0,0,0,0h.14s0,0,0,0Zm-.14,5.27s0,0,0,0l0,0h.14s0,0,0,0l0,0Zm5.15,1.86a3.48,3.48,0,0,1-2.28-.65,1.58,1.58,0,0,1-.51-.71,2,2,0,0,1-.1-.52.08.08,0,0,1,.16,0,1.88,1.88,0,0,0,.09.46,1.34,1.34,0,0,0,.46.62,3.31,3.31,0,0,0,2.18.63,3,3,0,0,0,2.12-.69,1.54,1.54,0,0,0,.36-.55,1.37,1.37,0,0,0,.1-.47,1.05,1.05,0,0,0-.11-.48,1.25,1.25,0,0,0-.4-.48,2.54,2.54,0,0,0-.81-.41,6.56,6.56,0,0,0-1.34-.25,8.44,8.44,0,0,1-1.85-.4,7.16,7.16,0,0,1-1.6-.76,2.91,2.91,0,0,1-1.56-2.43A2.85,2.85,0,0,1,165,33a3.59,3.59,0,0,1,1-1.2,5.37,5.37,0,0,1,1.64-.82,6.35,6.35,0,0,1,2-.3,6.22,6.22,0,0,1,1.95.3,5,5,0,0,1,1.6.84,3.87,3.87,0,0,1,1,1.16,2.87,2.87,0,0,1,.35,1.36c0,.06,0,.08-.08.08s-.08,0-.08-.08a2.64,2.64,0,0,0-.34-1.28,3.48,3.48,0,0,0-1-1.12,5.25,5.25,0,0,0-1.58-.81,6.11,6.11,0,0,0-1.88-.29,6.21,6.21,0,0,0-1.91.29,5.19,5.19,0,0,0-1.59.81,3.43,3.43,0,0,0-1,1.13,2.78,2.78,0,0,0-.35,1.33,1.87,1.87,0,0,0,.15.76,2.75,2.75,0,0,0,.35.63,4,4,0,0,0,.48.52,5,5,0,0,0,.51.39,6.47,6.47,0,0,0,1.54.73,8.55,8.55,0,0,0,1.82.39,4.37,4.37,0,0,1,2.3.74,1.35,1.35,0,0,1,.51,1,1.4,1.4,0,0,1-.13.54,1.7,1.7,0,0,1-.4.6A3.12,3.12,0,0,1,169.75,41.46Zm-.07,1.77A6.5,6.5,0,0,1,168,43a6.39,6.39,0,0,1-1.56-.64,5.43,5.43,0,0,1-.61-.44,3.12,3.12,0,0,1-.55-.59,3.3,3.3,0,0,1-.41-.77,2.94,2.94,0,0,1-.16-1,.07.07,0,0,1,.08-.08c.06,0,.09,0,.09.08a2.65,2.65,0,0,0,.15.92,3.14,3.14,0,0,0,.38.73,3.22,3.22,0,0,0,.53.57,3.89,3.89,0,0,0,.58.41,5.92,5.92,0,0,0,1.52.63,6.46,6.46,0,0,0,1.68.22,6.8,6.8,0,0,0,1.69-.2,5.42,5.42,0,0,0,1.46-.57,3,3,0,0,0,1.61-2.71A2.74,2.74,0,0,0,172.76,37a6.32,6.32,0,0,0-1.53-.55c-.54-.12-1.07-.22-1.58-.3a8.74,8.74,0,0,1-1.17-.25,2.9,2.9,0,0,1-.85-.37,1.36,1.36,0,0,1-.79-1.24,1.27,1.27,0,0,1,.24-.73,2.55,2.55,0,0,1,.7-.63,3.55,3.55,0,0,1,.91-.38,4.2,4.2,0,0,1,1-.13,3.74,3.74,0,0,1,1,.14,3.85,3.85,0,0,1,.9.4,2.75,2.75,0,0,1,.67.59,1.13,1.13,0,0,1,.27.72s0,.08-.1.1-.09,0-.09-.08a1.1,1.1,0,0,0-.22-.64,2.17,2.17,0,0,0-.63-.56,3.35,3.35,0,0,0-.87-.37,3.3,3.3,0,0,0-.91-.14,4,4,0,0,0-1.81.49,1.47,1.47,0,0,0-.85,1.22,1.26,1.26,0,0,0,.71,1.1,4,4,0,0,0,.83.35,10,10,0,0,0,1.13.24c.51.08,1.05.19,1.61.31a6.07,6.07,0,0,1,1.56.57,3.08,3.08,0,0,1,1.24,1,2.79,2.79,0,0,1,.51,1.68,3.12,3.12,0,0,1-1.69,2.85,5.05,5.05,0,0,1-1.5.59A7.15,7.15,0,0,1,169.68,43.23Zm-2.74-8.84h-2.2c-.05,0-.08,0-.08-.08a.07.07,0,0,1,.08-.08h2.2a.07.07,0,0,1,.08.08C167,34.37,167,34.39,166.94,34.39Zm0,5.28h-2.2c-.05,0-.08,0-.08-.09a.07.07,0,0,1,.08-.08h2.2a.07.07,0,0,1,.08.08C167,39.64,167,39.67,166.94,39.67ZM164.72,39v-.14a0,0,0,0,1,0,0l0,0V39l0,0S164.72,39.05,164.72,39Zm0,.55v-.14a0,0,0,0,1,0,0l0,0v.14l0,0S164.72,39.6,164.72,39.58Zm2.21-.52s0,0,0,0l0-.14,0,0,0,0,0,.14S166.94,39.06,166.93,39.06Zm0,.54s0,0,0,0l0-.14,0,0,0,0,0,.14S166.94,39.6,166.93,39.6Zm.15-5.27h-.14l0,0,0,0h.14s0,0,0,0S167.1,34.33,167.08,34.33Zm0,5.27h-.14s0,0,0,0l0,0h.14s0,0,0,0S167.1,39.6,167.08,39.6Zm.59-5.27h-.12l0,0a0,0,0,0,1,0,0h.12s0,0,0,0S167.69,34.33,167.67,34.33Zm0,5.27h-.12s0,0,0,0a0,0,0,0,1,0,0h.12s0,0,0,0S167.69,39.6,167.67,39.6Zm2-7c-.06,0-.09,0-.09-.08V30.73c0-.05,0-.08.09-.08s.09,0,.09.08v1.79C169.77,32.58,169.74,32.6,169.68,32.6Zm0,10.63c-.06,0-.09,0-.09-.08V41.38a.09.09,0,0,1,.18,0v1.77C169.77,43.2,169.74,43.23,169.68,43.23Zm0-5.27c-.06,0-.08,0-.08-.09V36.08s0-.08.08-.08a.07.07,0,0,1,.08.08v1.79C169.77,37.93,169.74,38,169.69,38Zm0-8.73,0-.27s0,0,0,0,0,0,0,0l0,.27v0S169.67,29.24,169.67,29.23Zm0,.75,0-.27s0,0,0,0,0,0,0,0l0,.27v0S169.67,30,169.67,30Zm0,.75,0-.34s0,0,0,0l0,0,0,.34v0S169.67,30.75,169.67,30.73Zm0,2v0l0-.15s0,0,0,0,0,0,0,0l0,.15Zm0,.54v0l0-.14s0,0,0,0,0,0,0,0l0,.14Zm0,2.26v0l0-.14s0,0,0,0,0,0,0,0l0,.14Zm0,.59,0-.14s0,0,0,0l0,0,0,.14v0S169.67,36.1,169.67,36.08Zm0,1.92,0-.13s0,0,0,0,0,0,0,0l0,.13v0S169.67,38,169.67,38Zm0,.55,0-.13s0,0,0,0,0,0,0,0l0,.13v0S169.67,38.56,169.67,38.55Zm0,2.3v0l0-.15s0,0,0,0,0,0,0,0l0,.15Zm0,.55v0l0-.15s0,0,0,0,0,0,0,0l0,.15Zm0,2.09,0-.34s0,0,0,0l0,0,0,.34v0S169.67,43.5,169.67,43.49Zm0,.75,0-.34s0,0,0,0l0,0,0,.34v0S169.67,44.26,169.67,44.24Zm0,.76,0-.35s0,0,0,0l0,0,0,.35v0S169.67,45,169.67,45Zm0-14.11h0v0l.14-.12s0,0,0,0,0,0,0,0h0s0,0,0,0Zm0,1.1h0v0l1.1-1.16h0Zm0,4.32h0v0l.2-.21h0v0Zm0,1.1h0v0l1.16-1.23s0,0,0,0v0l0,0Zm0,5.41h0v0l2-2h0v0Zm0-1.1h0v0l.34-.35h0s0,0,0,0Zm.47-9.18s0,0,0,0l1.48-1.5h0v0l-1.5,1.52Zm.08,5.36s0,0,0,0h0l1.5-1.44h0a0,0,0,0,1,0,0l-1.5,1.42Zm.2,5.27h0v0l4-4.14h0v.05Zm.61-10.42h0v0l1.36-1.37a0,0,0,0,1,.05,0v0l-1.37,1.39Zm.06,5.41h0l1.37-1.45s0,0,0,0v0h0l-1.37,1.45Zm.69-3.83h-.14l0,0,0,0h.14s0,0,0,0Zm-.14,5.27s0,0,0,0l0,0h.14s0,0,0,0l0,0Zm.08-6.45h0s0,0,0,0l1.37-1.36h0s0,0,0,0h0Zm.06,5.36h0v0l1.37-1.36h0v0l-1.37,1.39Zm.07,4.31h0v0l2.68-2.69h0v0l-2.66,2.67Zm.28-2.46h0v0l2.06-2.06h0s0,0,0,0Zm.06-6.58,0,0v0l1.51-1.5s0,0,0,0v0l-1.51,1.5Zm.2.55h-.2l0,0a0,0,0,0,1,0,0h.2s0,0,0,0S172.43,34.33,172.41,34.33Zm0,5.27h-.2s0,0,0,0a0,0,0,0,1,0,0h.2s0,0,0,0S172.43,39.6,172.41,39.6Zm-.14-.48h0l1.43-1.45h0v0l-1.45,1.45Zm2.26-4.73H172.4c-.06,0-.09,0-.09-.08s0-.08.1-.08h2.12c.06,0,.08,0,.08.08S174.59,34.39,174.53,34.39Zm0,5.28H172.4a.08.08,0,0,1-.09-.09s0-.08.1-.08h2.12c.06,0,.08,0,.08.08S174.59,39.67,174.53,39.67Zm-2.13-5.21a0,0,0,0,1,0,0l0-.13,0,0s0,0,0,0l0,.13S172.41,34.46,172.4,34.46Zm0,.55v0l0-.15,0,0,0,0,0,.15S172.41,35,172.4,35Zm.34-.7v0l1.45-1.44h0l-1.43,1.44,0,0Zm1.12,0,0,0v0l.61-.63h0v0l-.63.61Zm.81,0h-.14l0,0,0,0h.14s0,0,0,0S174.69,34.33,174.67,34.33Zm-.14.13a0,0,0,0,1,0,0v-.13l0,0a0,0,0,0,1,0,0v.13A0,0,0,0,1,174.53,34.46Zm0,.55,0,0v-.15l0,0,0,0V35Zm.14,4.59h-.14s0,0,0,0l0,0h.14s0,0,0,0S174.69,39.6,174.67,39.6Zm.59-5.27h-.14l0,0,0,0h.14s0,0,0,0S175.28,34.33,175.26,34.33Zm0,5.27h-.14s0,0,0,0l0,0h.14s0,0,0,0S175.28,39.6,175.26,39.6Z"/><polygon class="cls-1" points="15.24 0 15.24 30.09 29.29 30.09 29.29 44.13 45.73 44.13 45.73 0 15.24 0"/><polygon class="cls-2" points="15.24 30.09 0 30.09 0 52.55 30.49 52.55 30.49 44.13 15.24 44.13 15.24 30.09"/></g></g></svg>